<?xml version="1.0" encoding="UTF-8" standalone="no"?>
<!DOCTYPE svg PUBLIC "-//W3C//DTD SVG 1.1//EN" "http://www.w3.org/Graphics/SVG/1.1/DTD/svg11.dtd">
<!-- Created with matplotlib (http://matplotlib.sourceforge.net/) -->
<svg width="576pt" height="432pt" viewBox="0 0 576 432" xmlns="http://www.w3.org/2000/svg" xmlns:xlink="http://www.w3.org/1999/xlink" version="1.1" id="svg1">
<g id="figure1">
<g id="patch1">
<path style="fill: rgb(191, 191, 191); stroke: rgb(255, 255, 255); stroke-width: 1; stroke-linejoin: round; stroke-linecap: square; opacity: 1;" d="M0.000000 432.000000L576.000000 432.000000L576.000000 0.000000 L0.000000 0.000000L0.000000 432.000000"/>
</g>
<g id="axes1">
<g id="patch2">
<path style="fill: rgb(255, 255, 255); opacity: 1;" d="M72.000000 388.800000L518.400000 388.800000L518.400000 43.200000 L72.000000 43.200000L72.000000 388.800000"/>
</g>
<g id="line2d1">
<defs>
  <clipPath id="p50431ccdcb28178602d99d9270004dde">
<rect x="72.000000" y="43.200000" width="446.400000" height="345.600000"/>
  </clipPath>
</defs><path style="fill: none; stroke: rgb(0, 0, 255); stroke-width: 2; stroke-linejoin: round; stroke-linecap: square; opacity: 1;" clip-path="url(#p50431ccdcb28178602d99d9270004dde)" d="M70.728205 362.836800L82.174359 362.275200L83.446154 361.800000 L93.620513 361.195200L96.164103 360.590400L101.251282 359.856000 L125.415385 359.251200L126.687179 358.560000L126.687179 357.134400 L127.958974 357.134400L127.958974 355.622400L130.502564 355.622400 L130.502564 354.369600L138.133333 354.369600L143.220513 353.721600 L143.220513 352.555200L144.492308 352.555200L144.492308 351.259200 L147.035897 351.259200L147.035897 349.012800L148.307692 349.012800 L152.123077 348.408000L152.123077 347.068800L153.394872 347.068800 L155.938462 345.643200L155.938462 343.137600L157.210256 343.137600 L157.210256 341.798400L158.482051 341.798400L158.482051 340.632000 L159.753846 340.632000L159.753846 339.336000L161.025641 339.336000 L162.297436 338.515200L162.297436 337.348800L163.569231 337.348800 L163.569231 336.139200L164.841026 336.139200L164.841026 334.843200 L166.112821 334.843200L167.384615 334.281600L169.928205 333.806400 L171.200000 332.985600L171.200000 331.214400L172.471795 331.214400 L172.471795 328.752000L173.743590 328.752000L173.743590 326.851200 L176.287179 326.548800L181.374359 326.030400L181.374359 323.611200 L182.646154 323.611200L182.646154 321.624000L185.189744 321.624000 L185.189744 320.371200L186.461538 320.371200L186.461538 318.340800 L187.733333 318.340800L187.733333 316.612800L189.005128 316.612800 L189.005128 314.236800L190.276923 314.236800L190.276923 312.768000 L191.548718 312.768000L194.092308 312.120000L194.092308 310.262400 L195.364103 310.262400L195.364103 308.966400L200.451282 308.664000 L200.451282 307.540800L202.994872 307.540800L202.994872 306.417600 L204.266667 306.417600L205.538462 305.812800L205.538462 304.257600 L206.810256 304.257600L206.810256 302.400000L208.082051 302.400000 L209.353846 301.665600L211.897436 301.406400L211.897436 300.024000 L215.712821 299.808000L215.712821 298.598400L218.256410 298.598400 L220.800000 297.475200L220.800000 296.222400L222.071795 296.222400 L225.887179 295.704000L225.887179 293.760000L228.430769 293.760000 L228.430769 291.384000L232.246154 291.384000L232.246154 288.921600 L233.517949 288.921600L234.789744 287.971200L236.061538 287.539200 L236.061538 286.459200L237.333333 286.459200L237.333333 285.206400 L239.876923 285.206400L239.876923 283.824000L241.148718 283.824000 L241.148718 282.787200L243.692308 282.787200L243.692308 281.577600 L244.964103 281.577600L244.964103 280.540800L246.235897 280.540800 L248.779487 279.892800L248.779487 278.251200L250.051282 278.251200 L250.051282 276.609600L251.323077 276.609600L252.594872 275.918400 L252.594872 274.881600L256.410256 274.881600L256.410256 272.548800 L257.682051 272.548800L258.953846 271.987200L261.497436 270.216000 L261.497436 268.444800L262.769231 268.444800L262.769231 265.680000 L264.041026 265.680000L264.041026 263.995200L265.312821 263.995200 L270.400000 261.705600L270.400000 259.934400L271.671795 259.934400 L271.671795 258.724800L272.943590 258.724800L276.758974 256.392000 L276.758974 253.929600L278.030769 253.929600L278.030769 251.812800 L279.302564 251.812800L280.574359 250.819200L280.574359 249.566400 L281.846154 249.566400L281.846154 247.795200L283.117949 247.795200 L284.389744 247.147200L284.389744 246.024000L285.661538 246.024000 L285.661538 244.252800L286.933333 244.252800L286.933333 242.913600 L288.205128 242.913600L288.205128 241.531200L289.476923 241.531200 L293.292308 240.840000L294.564103 240.148800L297.107692 239.544000 L297.107692 238.464000L302.194872 238.464000L303.466667 237.772800 L303.466667 236.520000L304.738462 236.520000L304.738462 235.094400 L306.010256 235.094400L313.641026 233.366400L316.184615 232.070400 L317.456410 231.120000L317.456410 229.564800L320.000000 229.564800 L321.271795 228.830400L321.271795 226.972800L322.543590 226.972800 L323.815385 226.195200L323.815385 225.028800L326.358974 225.028800 L326.358974 223.128000L327.630769 223.128000L327.630769 222.004800 L328.902564 222.004800L328.902564 220.752000L331.446154 220.752000 L332.717949 219.758400L332.717949 217.857600L335.261538 217.857600 L339.076923 217.339200L339.076923 215.395200L340.348718 215.395200 L341.620513 214.833600L342.892308 213.840000L342.892308 211.766400 L344.164103 211.766400L344.164103 210.384000L345.435897 210.384000 L347.979487 209.260800L350.523077 208.008000L350.523077 206.323200 L351.794872 206.323200L351.794872 204.206400L353.066667 204.206400 L356.882051 203.515200L356.882051 202.392000L358.153846 202.392000 L359.425641 201.744000L359.425641 200.361600L360.697436 200.361600 L361.969231 199.627200L361.969231 198.331200L363.241026 198.331200 L365.784615 197.812800L365.784615 194.745600L367.056410 194.745600 L367.056410 192.758400L370.871795 192.758400L370.871795 190.944000 L372.143590 190.944000L372.143590 188.395200L373.415385 188.395200 L373.415385 185.284800L374.687179 185.284800L374.687179 182.347200 L375.958974 182.347200L375.958974 180.662400L377.230769 180.662400 L377.230769 178.848000L378.502564 178.848000L378.502564 176.904000 L379.774359 176.904000L381.046154 176.256000L381.046154 174.139200 L382.317949 174.139200L382.317949 172.195200L384.861538 172.195200 L384.861538 170.337600L386.133333 170.337600L386.133333 169.084800 L387.405128 169.084800L388.676923 168.436800L388.676923 166.665600 L389.948718 166.665600L389.948718 165.628800L391.220513 165.628800 L391.220513 163.555200L393.764103 163.555200L393.764103 157.723200 L395.035897 157.723200L395.035897 155.952000L396.307692 155.952000 L396.307692 151.891200L397.579487 151.891200L397.579487 150.638400 L398.851282 150.638400L398.851282 148.608000L400.123077 148.608000 L400.123077 146.664000L401.394872 146.664000L401.394872 144.849600 L402.666667 144.849600L403.938462 144.244800L403.938462 142.084800 L406.482051 142.084800L406.482051 140.140800L407.753846 140.140800 L407.753846 138.283200L409.025641 138.283200L409.025641 136.598400 L410.297436 136.598400L410.297436 134.697600L411.569231 134.697600 L411.569231 131.716800L412.841026 131.716800L412.841026 129.772800 L414.112821 129.772800L414.112821 127.828800L415.384615 127.828800 L415.384615 126.576000L416.656410 126.576000L416.656410 122.342400 L417.928205 122.342400L420.471795 121.608000L420.471795 119.059200 L423.015385 119.059200L423.015385 117.547200L424.287179 117.547200 L424.287179 115.646400L425.558974 115.646400L425.558974 114.350400 L428.102564 114.350400L428.102564 112.536000L429.374359 112.536000 L429.374359 110.592000L430.646154 110.592000L430.646154 107.308800 L433.189744 107.308800L434.461538 106.617600L434.461538 104.241600 L437.005128 104.241600L437.005128 102.427200L438.276923 102.427200 L438.276923 100.180800L442.092308 100.180800L442.092308 98.323200 L444.635897 98.323200L444.635897 95.817600L445.907692 95.817600 L445.907692 93.528000L447.179487 93.528000L447.179487 91.756800 L448.451282 91.756800L449.723077 91.108800L449.723077 89.424000 L450.994872 89.424000L450.994872 88.171200L453.538462 88.171200 L454.810256 87.480000L454.810256 86.356800L457.353846 86.356800 L458.625641 85.795200L458.625641 84.283200L461.169231 84.283200 L461.169231 83.116800L463.712821 83.116800L463.712821 81.086400 L464.984615 81.086400L464.984615 79.876800L466.256410 79.876800 L466.256410 77.587200L467.528205 77.587200L467.528205 76.420800 L468.800000 76.420800L468.800000 75.211200L470.071795 75.211200 L470.071795 73.742400L471.343590 73.742400L471.343590 71.107200 L475.158974 71.107200L476.430769 70.459200L476.430769 68.472000 L477.702564 68.472000L477.702564 66.830400L478.974359 66.830400 L478.974359 64.756800L480.246154 64.756800L480.246154 63.201600 L481.517949 63.201600L481.517949 60.652800L482.789744 60.652800 L484.061538 60.220800L484.061538 57.628800L485.333333 57.628800 L487.876923 57.110400L487.876923 55.771200L494.235897 55.771200 L494.235897 53.524800L495.507692 53.524800L496.779487 52.920000 L499.323077 52.747200L500.594872 52.099200L500.594872 48.945600 L504.410256 48.945600L505.682051 48.297600L505.682051 48.297600"/>
</g>
<g id="matplotlib.axis1">
<g id="xtick1">
<g id="line2d2">
<path style="fill: none; stroke: rgb(0, 0, 0); stroke-width: 0.5; stroke-linejoin: round; stroke-linecap: butt; stroke-dasharray: 1, 3; stroke-dashoffset: 0pt; opacity: 1;" clip-path="url(#p50431ccdcb28178602d99d9270004dde)" d="M108.882051 388.800000L108.882051 43.200000"/>
</g>
<g id="line2d3">
<defs><path id="m30e32995789d870ad79a2e54c91cf9c6" d="M0.000000 0.000000L0.000000 -4.000000"/></defs>
<g><use style="fill: none; stroke: rgb(0, 0, 0); stroke-width: 0.5; stroke-linejoin: round; stroke-linecap: butt; opacity: 1;" xlink:href="#m30e32995789d870ad79a2e54c91cf9c6" x="108.882051" y="388.800000"/>
</g></g>
<g id="line2d4">
<defs><path id="m9281cae24120827b11d5ea8a7ad3e96b" d="M0.000000 0.000000L0.000000 4.000000"/></defs>
<g><use style="fill: none; stroke: rgb(0, 0, 0); stroke-width: 0.5; stroke-linejoin: round; stroke-linecap: butt; opacity: 1;" xlink:href="#m9281cae24120827b11d5ea8a7ad3e96b" x="108.882051" y="43.200000"/>
</g></g>
</g>
<g id="xtick2">
<g id="line2d5">
<path style="fill: none; stroke: rgb(0, 0, 0); stroke-width: 0.5; stroke-linejoin: round; stroke-linecap: butt; stroke-dasharray: 1, 3; stroke-dashoffset: 0pt; opacity: 1;" clip-path="url(#p50431ccdcb28178602d99d9270004dde)" d="M144.492308 388.800000L144.492308 43.200000"/>
</g>
<g id="line2d6">
<g><use style="fill: none; stroke: rgb(0, 0, 0); stroke-width: 0.5; stroke-linejoin: round; stroke-linecap: butt; opacity: 1;" xlink:href="#m30e32995789d870ad79a2e54c91cf9c6" x="144.492308" y="388.800000"/>
</g></g>
<g id="line2d7">
<g><use style="fill: none; stroke: rgb(0, 0, 0); stroke-width: 0.5; stroke-linejoin: round; stroke-linecap: butt; opacity: 1;" xlink:href="#m9281cae24120827b11d5ea8a7ad3e96b" x="144.492308" y="43.200000"/>
</g></g>
</g>
<g id="xtick3">
<g id="line2d8">
<path style="fill: none; stroke: rgb(0, 0, 0); stroke-width: 0.5; stroke-linejoin: round; stroke-linecap: butt; stroke-dasharray: 1, 3; stroke-dashoffset: 0pt; opacity: 1;" clip-path="url(#p50431ccdcb28178602d99d9270004dde)" d="M183.917949 388.800000L183.917949 43.200000"/>
</g>
<g id="line2d9">
<g><use style="fill: none; stroke: rgb(0, 0, 0); stroke-width: 0.5; stroke-linejoin: round; stroke-linecap: butt; opacity: 1;" xlink:href="#m30e32995789d870ad79a2e54c91cf9c6" x="183.917949" y="388.800000"/>
</g></g>
<g id="line2d10">
<g><use style="fill: none; stroke: rgb(0, 0, 0); stroke-width: 0.5; stroke-linejoin: round; stroke-linecap: butt; opacity: 1;" xlink:href="#m9281cae24120827b11d5ea8a7ad3e96b" x="183.917949" y="43.200000"/>
</g></g>
</g>
<g id="xtick4">
<g id="line2d11">
<path style="fill: none; stroke: rgb(0, 0, 0); stroke-width: 0.5; stroke-linejoin: round; stroke-linecap: butt; stroke-dasharray: 1, 3; stroke-dashoffset: 0pt; opacity: 1;" clip-path="url(#p50431ccdcb28178602d99d9270004dde)" d="M222.071795 388.800000L222.071795 43.200000"/>
</g>
<g id="line2d12">
<g><use style="fill: none; stroke: rgb(0, 0, 0); stroke-width: 0.5; stroke-linejoin: round; stroke-linecap: butt; opacity: 1;" xlink:href="#m30e32995789d870ad79a2e54c91cf9c6" x="222.071795" y="388.800000"/>
</g></g>
<g id="line2d13">
<g><use style="fill: none; stroke: rgb(0, 0, 0); stroke-width: 0.5; stroke-linejoin: round; stroke-linecap: butt; opacity: 1;" xlink:href="#m9281cae24120827b11d5ea8a7ad3e96b" x="222.071795" y="43.200000"/>
</g></g>
</g>
<g id="xtick5">
<g id="line2d14">
<path style="fill: none; stroke: rgb(0, 0, 0); stroke-width: 0.5; stroke-linejoin: round; stroke-linecap: butt; stroke-dasharray: 1, 3; stroke-dashoffset: 0pt; opacity: 1;" clip-path="url(#p50431ccdcb28178602d99d9270004dde)" d="M261.497436 388.800000L261.497436 43.200000"/>
</g>
<g id="line2d15">
<g><use style="fill: none; stroke: rgb(0, 0, 0); stroke-width: 0.5; stroke-linejoin: round; stroke-linecap: butt; opacity: 1;" xlink:href="#m30e32995789d870ad79a2e54c91cf9c6" x="261.497436" y="388.800000"/>
</g></g>
<g id="line2d16">
<g><use style="fill: none; stroke: rgb(0, 0, 0); stroke-width: 0.5; stroke-linejoin: round; stroke-linecap: butt; opacity: 1;" xlink:href="#m9281cae24120827b11d5ea8a7ad3e96b" x="261.497436" y="43.200000"/>
</g></g>
</g>
<g id="xtick6">
<g id="line2d17">
<path style="fill: none; stroke: rgb(0, 0, 0); stroke-width: 0.5; stroke-linejoin: round; stroke-linecap: butt; stroke-dasharray: 1, 3; stroke-dashoffset: 0pt; opacity: 1;" clip-path="url(#p50431ccdcb28178602d99d9270004dde)" d="M299.651282 388.800000L299.651282 43.200000"/>
</g>
<g id="line2d18">
<g><use style="fill: none; stroke: rgb(0, 0, 0); stroke-width: 0.5; stroke-linejoin: round; stroke-linecap: butt; opacity: 1;" xlink:href="#m30e32995789d870ad79a2e54c91cf9c6" x="299.651282" y="388.800000"/>
</g></g>
<g id="line2d19">
<g><use style="fill: none; stroke: rgb(0, 0, 0); stroke-width: 0.5; stroke-linejoin: round; stroke-linecap: butt; opacity: 1;" xlink:href="#m9281cae24120827b11d5ea8a7ad3e96b" x="299.651282" y="43.200000"/>
</g></g>
</g>
<g id="xtick7">
<g id="line2d20">
<path style="fill: none; stroke: rgb(0, 0, 0); stroke-width: 0.5; stroke-linejoin: round; stroke-linecap: butt; stroke-dasharray: 1, 3; stroke-dashoffset: 0pt; opacity: 1;" clip-path="url(#p50431ccdcb28178602d99d9270004dde)" d="M339.076923 388.800000L339.076923 43.200000"/>
</g>
<g id="line2d21">
<g><use style="fill: none; stroke: rgb(0, 0, 0); stroke-width: 0.5; stroke-linejoin: round; stroke-linecap: butt; opacity: 1;" xlink:href="#m30e32995789d870ad79a2e54c91cf9c6" x="339.076923" y="388.800000"/>
</g></g>
<g id="line2d22">
<g><use style="fill: none; stroke: rgb(0, 0, 0); stroke-width: 0.5; stroke-linejoin: round; stroke-linecap: butt; opacity: 1;" xlink:href="#m9281cae24120827b11d5ea8a7ad3e96b" x="339.076923" y="43.200000"/>
</g></g>
</g>
<g id="xtick8">
<g id="line2d23">
<path style="fill: none; stroke: rgb(0, 0, 0); stroke-width: 0.5; stroke-linejoin: round; stroke-linecap: butt; stroke-dasharray: 1, 3; stroke-dashoffset: 0pt; opacity: 1;" clip-path="url(#p50431ccdcb28178602d99d9270004dde)" d="M378.502564 388.800000L378.502564 43.200000"/>
</g>
<g id="line2d24">
<g><use style="fill: none; stroke: rgb(0, 0, 0); stroke-width: 0.5; stroke-linejoin: round; stroke-linecap: butt; opacity: 1;" xlink:href="#m30e32995789d870ad79a2e54c91cf9c6" x="378.502564" y="388.800000"/>
</g></g>
<g id="line2d25">
<g><use style="fill: none; stroke: rgb(0, 0, 0); stroke-width: 0.5; stroke-linejoin: round; stroke-linecap: butt; opacity: 1;" xlink:href="#m9281cae24120827b11d5ea8a7ad3e96b" x="378.502564" y="43.200000"/>
</g></g>
</g>
<g id="xtick9">
<g id="line2d26">
<path style="fill: none; stroke: rgb(0, 0, 0); stroke-width: 0.5; stroke-linejoin: round; stroke-linecap: butt; stroke-dasharray: 1, 3; stroke-dashoffset: 0pt; opacity: 1;" clip-path="url(#p50431ccdcb28178602d99d9270004dde)" d="M416.656410 388.800000L416.656410 43.200000"/>
</g>
<g id="line2d27">
<g><use style="fill: none; stroke: rgb(0, 0, 0); stroke-width: 0.5; stroke-linejoin: round; stroke-linecap: butt; opacity: 1;" xlink:href="#m30e32995789d870ad79a2e54c91cf9c6" x="416.656410" y="388.800000"/>
</g></g>
<g id="line2d28">
<g><use style="fill: none; stroke: rgb(0, 0, 0); stroke-width: 0.5; stroke-linejoin: round; stroke-linecap: butt; opacity: 1;" xlink:href="#m9281cae24120827b11d5ea8a7ad3e96b" x="416.656410" y="43.200000"/>
</g></g>
</g>
<g id="xtick10">
<g id="line2d29">
<path style="fill: none; stroke: rgb(0, 0, 0); stroke-width: 0.5; stroke-linejoin: round; stroke-linecap: butt; stroke-dasharray: 1, 3; stroke-dashoffset: 0pt; opacity: 1;" clip-path="url(#p50431ccdcb28178602d99d9270004dde)" d="M456.082051 388.800000L456.082051 43.200000"/>
</g>
<g id="line2d30">
<g><use style="fill: none; stroke: rgb(0, 0, 0); stroke-width: 0.5; stroke-linejoin: round; stroke-linecap: butt; opacity: 1;" xlink:href="#m30e32995789d870ad79a2e54c91cf9c6" x="456.082051" y="388.800000"/>
</g></g>
<g id="line2d31">
<g><use style="fill: none; stroke: rgb(0, 0, 0); stroke-width: 0.5; stroke-linejoin: round; stroke-linecap: butt; opacity: 1;" xlink:href="#m9281cae24120827b11d5ea8a7ad3e96b" x="456.082051" y="43.200000"/>
</g></g>
</g>
<g id="xtick11">
<g id="line2d32">
<path style="fill: none; stroke: rgb(0, 0, 0); stroke-width: 0.5; stroke-linejoin: round; stroke-linecap: butt; stroke-dasharray: 1, 3; stroke-dashoffset: 0pt; opacity: 1;" clip-path="url(#p50431ccdcb28178602d99d9270004dde)" d="M494.235897 388.800000L494.235897 43.200000"/>
</g>
<g id="line2d33">
<g><use style="fill: none; stroke: rgb(0, 0, 0); stroke-width: 0.5; stroke-linejoin: round; stroke-linecap: butt; opacity: 1;" xlink:href="#m30e32995789d870ad79a2e54c91cf9c6" x="494.235897" y="388.800000"/>
</g></g>
<g id="line2d34">
<g><use style="fill: none; stroke: rgb(0, 0, 0); stroke-width: 0.5; stroke-linejoin: round; stroke-linecap: butt; opacity: 1;" xlink:href="#m9281cae24120827b11d5ea8a7ad3e96b" x="494.235897" y="43.200000"/>
</g></g>
</g>
<g id="xtick12">
<g id="line2d35">
<defs><path id="m7bf2fe5dacaa730cd3124e81bdc4de9d" d="M0.000000 0.000000L0.000000 0.000000"/></defs>
<g><use style="fill: none; stroke: rgb(0, 0, 0); stroke-width: 0.5; stroke-linejoin: round; stroke-linecap: butt; opacity: 1;" xlink:href="#m7bf2fe5dacaa730cd3124e81bdc4de9d" x="87.261538" y="388.800000"/>
</g></g>
<g id="line2d36">
<g><use style="fill: none; stroke: rgb(0, 0, 0); stroke-width: 0.5; stroke-linejoin: round; stroke-linecap: butt; opacity: 1;" xlink:href="#m7bf2fe5dacaa730cd3124e81bdc4de9d" x="87.261538" y="43.200000"/>
</g></g>
<g id="text1">
<defs>
<path id="c_54624f4845a86755fe6d2d7ebbf10290" d="M9.812500 -72.906250l9.859375 0.000000l0.000000 67.828125q0.000000 13.187500 -5.000000 19.140625q-5.000000 5.953125 -16.093750 5.953125l-3.750000 0.000000l0.000000 -8.296875l3.078125 0.000000q6.531250 0.000000 9.218750 -3.671875q2.687500 -3.656250 2.687500 -13.125000z"/>
<path id="c_01d93a582460e35a7945ca50d148ffeb" d="M34.281250 -27.484375q-10.890625 0.000000 -15.093750 2.484375q-4.203125 2.484375 -4.203125 8.500000q0.000000 4.781250 3.156250 7.593750q3.156250 2.796875 8.562500 2.796875q7.484375 0.000000 12.000000 -5.296875q4.515625 -5.296875 4.515625 -14.078125l0.000000 -2.000000zM52.203125 -31.203125l0.000000 31.203125l-8.984375 0.000000l0.000000 -8.296875q-3.078125 4.968750 -7.671875 7.343750q-4.593750 2.375000 -11.234375 2.375000q-8.390625 0.000000 -13.359375 -4.718750q-4.953125 -4.718750 -4.953125 -12.625000q0.000000 -9.218750 6.171875 -13.906250q6.187500 -4.687500 18.437500 -4.687500l12.609375 0.000000l0.000000 -0.890625q0.000000 -6.203125 -4.078125 -9.593750q-4.078125 -3.390625 -11.453125 -3.390625q-4.687500 0.000000 -9.140625 1.125000q-4.437500 1.125000 -8.531250 3.375000l0.000000 -8.312500q4.921875 -1.906250 9.562500 -2.843750q4.640625 -0.953125 9.031250 -0.953125q11.875000 0.000000 17.734375 6.156250q5.859375 6.140625 5.859375 18.640625"/>
<path id="c_fe791a90f5471e2ab20a5ed41a7fa451" d="M54.890625 -33.015625l0.000000 33.015625l-8.984375 0.000000l0.000000 -32.718750q0.000000 -7.765625 -3.031250 -11.609375q-3.031250 -3.859375 -9.078125 -3.859375q-7.281250 0.000000 -11.484375 4.640625q-4.203125 4.625000 -4.203125 12.640625l0.000000 30.906250l-9.031250 0.000000l0.000000 -54.687500l9.031250 0.000000l0.000000 8.500000q3.234375 -4.937500 7.593750 -7.375000q4.375000 -2.437500 10.093750 -2.437500q9.421875 0.000000 14.250000 5.828125q4.843750 5.828125 4.843750 17.156250"/>
</defs>
<g style="fill: rgb(0, 0, 0); opacity: 1;" transform="translate(78.199, 401.55) scale(0.12)">
<use xlink:href="#c_54624f4845a86755fe6d2d7ebbf10290"/>
<use xlink:href="#c_01d93a582460e35a7945ca50d148ffeb" x="29.492188"/>
<use xlink:href="#c_fe791a90f5471e2ab20a5ed41a7fa451" x="90.771484"/>
</g>
</g>
</g>
<g id="xtick13">
<g id="line2d37">
<g><use style="fill: none; stroke: rgb(0, 0, 0); stroke-width: 0.5; stroke-linejoin: round; stroke-linecap: butt; opacity: 1;" xlink:href="#m7bf2fe5dacaa730cd3124e81bdc4de9d" x="126.687179" y="388.800000"/>
</g></g>
<g id="line2d38">
<g><use style="fill: none; stroke: rgb(0, 0, 0); stroke-width: 0.5; stroke-linejoin: round; stroke-linecap: butt; opacity: 1;" xlink:href="#m7bf2fe5dacaa730cd3124e81bdc4de9d" x="126.687179" y="43.200000"/>
</g></g>
<g id="text2">
<defs>
<path id="c_5d9b0d099c491f27a9f40b391fa98eef" d="M9.812500 -72.906250l41.890625 0.000000l0.000000 8.312500l-32.031250 0.000000l0.000000 21.484375l28.906250 0.000000l0.000000 8.296875l-28.906250 0.000000l0.000000 34.812500l-9.859375 0.000000z"/>
<path id="c_0bce5afba2dc6b9024b26277c38ad8e8" d="M56.203125 -29.593750l0.000000 4.390625l-41.312500 0.000000q0.593750 9.281250 5.593750 14.140625q5.000000 4.859375 13.937500 4.859375q5.171875 0.000000 10.031250 -1.265625q4.859375 -1.265625 9.656250 -3.812500l0.000000 8.500000q-4.843750 2.046875 -9.921875 3.125000q-5.078125 1.078125 -10.296875 1.078125q-13.093750 0.000000 -20.734375 -7.609375q-7.640625 -7.625000 -7.640625 -20.625000q0.000000 -13.421875 7.250000 -21.296875q7.250000 -7.890625 19.562500 -7.890625q11.031250 0.000000 17.453125 7.109375q6.421875 7.093750 6.421875 19.296875M47.218750 -32.234375q-0.093750 -7.359375 -4.125000 -11.750000q-4.031250 -4.406250 -10.671875 -4.406250q-7.515625 0.000000 -12.031250 4.250000q-4.515625 4.250000 -5.203125 11.968750z"/>
<path id="c_5cc9741494d2ad8f9764e03ae145569f" d="M48.687500 -27.296875q0.000000 -9.906250 -4.078125 -15.546875q-4.078125 -5.640625 -11.203125 -5.640625q-7.140625 0.000000 -11.218750 5.640625q-4.078125 5.640625 -4.078125 15.546875q0.000000 9.906250 4.078125 15.546875q4.078125 5.640625 11.218750 5.640625q7.125000 0.000000 11.203125 -5.640625q4.078125 -5.640625 4.078125 -15.546875M18.109375 -46.390625q2.843750 -4.875000 7.156250 -7.234375q4.328125 -2.375000 10.328125 -2.375000q9.968750 0.000000 16.187500 7.906250q6.234375 7.906250 6.234375 20.796875q0.000000 12.890625 -6.234375 20.812500q-6.218750 7.906250 -16.187500 7.906250q-6.000000 0.000000 -10.328125 -2.375000q-4.312500 -2.375000 -7.156250 -7.250000l0.000000 8.203125l-9.031250 0.000000l0.000000 -75.984375l9.031250 0.000000z"/>
</defs>
<g style="fill: rgb(0, 0, 0); opacity: 1;" transform="translate(116.953, 401.925) scale(0.12)">
<use xlink:href="#c_5d9b0d099c491f27a9f40b391fa98eef"/>
<use xlink:href="#c_0bce5afba2dc6b9024b26277c38ad8e8" x="52.019531"/>
<use xlink:href="#c_5cc9741494d2ad8f9764e03ae145569f" x="113.542969"/>
</g>
</g>
</g>
<g id="xtick14">
<g id="line2d39">
<g><use style="fill: none; stroke: rgb(0, 0, 0); stroke-width: 0.5; stroke-linejoin: round; stroke-linecap: butt; opacity: 1;" xlink:href="#m7bf2fe5dacaa730cd3124e81bdc4de9d" x="162.297436" y="388.800000"/>
</g></g>
<g id="line2d40">
<g><use style="fill: none; stroke: rgb(0, 0, 0); stroke-width: 0.5; stroke-linejoin: round; stroke-linecap: butt; opacity: 1;" xlink:href="#m7bf2fe5dacaa730cd3124e81bdc4de9d" x="162.297436" y="43.200000"/>
</g></g>
<g id="text3">
<defs>
<path id="c_72234ddc5dcad8d05c893ef0371171da" d="M9.812500 -72.906250l14.703125 0.000000l18.593750 49.609375l18.703125 -49.609375l14.703125 0.000000l0.000000 72.906250l-9.625000 0.000000l0.000000 -64.015625l-18.796875 50.000000l-9.906250 0.000000l-18.796875 -50.000000l0.000000 64.015625l-9.578125 0.000000z"/>
<path id="c_6ec8d5749226675394676a5d2a3b468b" d="M41.109375 -46.296875q-1.515625 -0.875000 -3.296875 -1.281250q-1.781250 -0.421875 -3.921875 -0.421875q-7.625000 0.000000 -11.703125 4.953125q-4.078125 4.953125 -4.078125 14.234375l0.000000 28.812500l-9.031250 0.000000l0.000000 -54.687500l9.031250 0.000000l0.000000 8.500000q2.843750 -4.984375 7.375000 -7.390625q4.546875 -2.421875 11.046875 -2.421875q0.921875 0.000000 2.046875 0.125000q1.125000 0.109375 2.484375 0.359375z"/>
</defs>
<g style="fill: rgb(0, 0, 0); opacity: 1;" transform="translate(151.555, 401.55) scale(0.12)">
<use xlink:href="#c_72234ddc5dcad8d05c893ef0371171da"/>
<use xlink:href="#c_01d93a582460e35a7945ca50d148ffeb" x="86.279297"/>
<use xlink:href="#c_6ec8d5749226675394676a5d2a3b468b" x="147.558594"/>
</g>
</g>
</g>
<g id="xtick15">
<g id="line2d41">
<g><use style="fill: none; stroke: rgb(0, 0, 0); stroke-width: 0.5; stroke-linejoin: round; stroke-linecap: butt; opacity: 1;" xlink:href="#m7bf2fe5dacaa730cd3124e81bdc4de9d" x="201.723077" y="388.800000"/>
</g></g>
<g id="line2d42">
<g><use style="fill: none; stroke: rgb(0, 0, 0); stroke-width: 0.5; stroke-linejoin: round; stroke-linecap: butt; opacity: 1;" xlink:href="#m7bf2fe5dacaa730cd3124e81bdc4de9d" x="201.723077" y="43.200000"/>
</g></g>
<g id="text4">
<defs>
<path id="c_6023715d605f81e6eb43b7f9d77e7c51" d="M34.187500 -63.187500l-13.390625 36.281250l26.812500 0.000000zM28.609375 -72.906250l11.187500 0.000000l27.781250 72.906250l-10.250000 0.000000l-6.640625 -18.703125l-32.859375 0.000000l-6.640625 18.703125l-10.406250 0.000000z"/>
<path id="c_f15a64fcd463ef4629c48bab42cde24c" d="M18.109375 -8.203125l0.000000 29.000000l-9.031250 0.000000l0.000000 -75.484375l9.031250 0.000000l0.000000 8.296875q2.843750 -4.875000 7.156250 -7.234375q4.328125 -2.375000 10.328125 -2.375000q9.968750 0.000000 16.187500 7.906250q6.234375 7.906250 6.234375 20.796875q0.000000 12.890625 -6.234375 20.812500q-6.218750 7.906250 -16.187500 7.906250q-6.000000 0.000000 -10.328125 -2.375000q-4.312500 -2.375000 -7.156250 -7.250000M48.687500 -27.296875q0.000000 -9.906250 -4.078125 -15.546875q-4.078125 -5.640625 -11.203125 -5.640625q-7.140625 0.000000 -11.218750 5.640625q-4.078125 5.640625 -4.078125 15.546875q0.000000 9.906250 4.078125 15.546875q4.078125 5.640625 11.218750 5.640625q7.125000 0.000000 11.203125 -5.640625q4.078125 -5.640625 4.078125 -15.546875"/>
</defs>
<g style="fill: rgb(0, 0, 0); opacity: 1;" transform="translate(191.387, 401.55) scale(0.12)">
<use xlink:href="#c_6023715d605f81e6eb43b7f9d77e7c51"/>
<use xlink:href="#c_f15a64fcd463ef4629c48bab42cde24c" x="68.408203"/>
<use xlink:href="#c_6ec8d5749226675394676a5d2a3b468b" x="131.884766"/>
</g>
</g>
</g>
<g id="xtick16">
<g id="line2d43">
<g><use style="fill: none; stroke: rgb(0, 0, 0); stroke-width: 0.5; stroke-linejoin: round; stroke-linecap: butt; opacity: 1;" xlink:href="#m7bf2fe5dacaa730cd3124e81bdc4de9d" x="239.876923" y="388.800000"/>
</g></g>
<g id="line2d44">
<g><use style="fill: none; stroke: rgb(0, 0, 0); stroke-width: 0.5; stroke-linejoin: round; stroke-linecap: butt; opacity: 1;" xlink:href="#m7bf2fe5dacaa730cd3124e81bdc4de9d" x="239.876923" y="43.200000"/>
</g></g>
<g id="text5">
<defs>
<path id="c_3fe22c4af425ac970aec982ae9662abe" d="M32.171875 5.078125q-3.796875 9.765625 -7.421875 12.734375q-3.609375 2.984375 -9.656250 2.984375l-7.187500 0.000000l0.000000 -7.515625l5.281250 0.000000q3.703125 0.000000 5.750000 -1.765625q2.062500 -1.750000 4.546875 -8.296875l1.609375 -4.093750l-22.109375 -53.812500l9.515625 0.000000l17.093750 42.765625l17.093750 -42.765625l9.515625 0.000000z"/>
</defs>
<g style="fill: rgb(0, 0, 0); opacity: 1;" transform="translate(228.228, 401.55) scale(0.12)">
<use xlink:href="#c_72234ddc5dcad8d05c893ef0371171da"/>
<use xlink:href="#c_01d93a582460e35a7945ca50d148ffeb" x="86.279297"/>
<use xlink:href="#c_3fe22c4af425ac970aec982ae9662abe" x="147.558594"/>
</g>
</g>
</g>
<g id="xtick17">
<g id="line2d45">
<g><use style="fill: none; stroke: rgb(0, 0, 0); stroke-width: 0.5; stroke-linejoin: round; stroke-linecap: butt; opacity: 1;" xlink:href="#m7bf2fe5dacaa730cd3124e81bdc4de9d" x="279.302564" y="388.800000"/>
</g></g>
<g id="line2d46">
<g><use style="fill: none; stroke: rgb(0, 0, 0); stroke-width: 0.5; stroke-linejoin: round; stroke-linecap: butt; opacity: 1;" xlink:href="#m7bf2fe5dacaa730cd3124e81bdc4de9d" x="279.302564" y="43.200000"/>
</g></g>
<g id="text6">
<defs>
<path id="c_c438d87e693443c2861ebd6359e6491e" d="M8.500000 -21.578125l0.000000 -33.109375l8.984375 0.000000l0.000000 32.765625q0.000000 7.765625 3.015625 11.656250q3.031250 3.875000 9.093750 3.875000q7.265625 0.000000 11.484375 -4.640625q4.234375 -4.640625 4.234375 -12.656250l0.000000 -31.000000l8.984375 0.000000l0.000000 54.687500l-8.984375 0.000000l0.000000 -8.406250q-3.265625 4.984375 -7.593750 7.406250q-4.312500 2.421875 -10.031250 2.421875q-9.421875 0.000000 -14.312500 -5.859375q-4.875000 -5.859375 -4.875000 -17.140625"/>
</defs>
<g style="fill: rgb(0, 0, 0); opacity: 1;" transform="translate(270.115, 401.55) scale(0.12)">
<use xlink:href="#c_54624f4845a86755fe6d2d7ebbf10290"/>
<use xlink:href="#c_c438d87e693443c2861ebd6359e6491e" x="29.492188"/>
<use xlink:href="#c_fe791a90f5471e2ab20a5ed41a7fa451" x="92.871094"/>
</g>
</g>
</g>
<g id="xtick18">
<g id="line2d47">
<g><use style="fill: none; stroke: rgb(0, 0, 0); stroke-width: 0.5; stroke-linejoin: round; stroke-linecap: butt; opacity: 1;" xlink:href="#m7bf2fe5dacaa730cd3124e81bdc4de9d" x="317.456410" y="388.800000"/>
</g></g>
<g id="line2d48">
<g><use style="fill: none; stroke: rgb(0, 0, 0); stroke-width: 0.5; stroke-linejoin: round; stroke-linecap: butt; opacity: 1;" xlink:href="#m7bf2fe5dacaa730cd3124e81bdc4de9d" x="317.456410" y="43.200000"/>
</g></g>
<g id="text7">
<defs>
<path id="c_5099edb83619131346ae654950954dea" d="M9.421875 -75.984375l8.984375 0.000000l0.000000 75.984375l-8.984375 0.000000z"/>
</defs>
<g style="fill: rgb(0, 0, 0); opacity: 1;" transform="translate(310.464, 401.925) scale(0.12)">
<use xlink:href="#c_54624f4845a86755fe6d2d7ebbf10290"/>
<use xlink:href="#c_c438d87e693443c2861ebd6359e6491e" x="29.492188"/>
<use xlink:href="#c_5099edb83619131346ae654950954dea" x="92.871094"/>
</g>
</g>
</g>
<g id="xtick19">
<g id="line2d49">
<g><use style="fill: none; stroke: rgb(0, 0, 0); stroke-width: 0.5; stroke-linejoin: round; stroke-linecap: butt; opacity: 1;" xlink:href="#m7bf2fe5dacaa730cd3124e81bdc4de9d" x="356.882051" y="388.800000"/>
</g></g>
<g id="line2d50">
<g><use style="fill: none; stroke: rgb(0, 0, 0); stroke-width: 0.5; stroke-linejoin: round; stroke-linecap: butt; opacity: 1;" xlink:href="#m7bf2fe5dacaa730cd3124e81bdc4de9d" x="356.882051" y="43.200000"/>
</g></g>
<g id="text8">
<defs>
<path id="c_e3864de5dabf2f8dd9eee74726882ec1" d="M45.406250 -27.984375q0.000000 -9.765625 -4.031250 -15.125000q-4.015625 -5.375000 -11.296875 -5.375000q-7.218750 0.000000 -11.250000 5.375000q-4.031250 5.359375 -4.031250 15.125000q0.000000 9.718750 4.031250 15.093750q4.031250 5.375000 11.250000 5.375000q7.281250 0.000000 11.296875 -5.375000q4.031250 -5.375000 4.031250 -15.093750M54.390625 -6.781250q0.000000 13.953125 -6.203125 20.765625q-6.187500 6.812500 -18.984375 6.812500q-4.734375 0.000000 -8.937500 -0.703125q-4.203125 -0.703125 -8.156250 -2.171875l0.000000 -8.734375q3.953125 2.140625 7.812500 3.156250q3.859375 1.031250 7.859375 1.031250q8.843750 0.000000 13.234375 -4.609375q4.390625 -4.609375 4.390625 -13.937500l0.000000 -4.453125q-2.781250 4.843750 -7.125000 7.234375q-4.343750 2.390625 -10.406250 2.390625q-10.046875 0.000000 -16.203125 -7.656250q-6.156250 -7.671875 -6.156250 -20.328125q0.000000 -12.687500 6.156250 -20.343750q6.156250 -7.671875 16.203125 -7.671875q6.062500 0.000000 10.406250 2.390625q4.343750 2.390625 7.125000 7.218750l0.000000 -8.296875l8.984375 0.000000z"/>
</defs>
<g style="fill: rgb(0, 0, 0); opacity: 1;" transform="translate(345.757, 401.55) scale(0.12)">
<use xlink:href="#c_6023715d605f81e6eb43b7f9d77e7c51"/>
<use xlink:href="#c_c438d87e693443c2861ebd6359e6491e" x="68.408203"/>
<use xlink:href="#c_e3864de5dabf2f8dd9eee74726882ec1" x="131.787109"/>
</g>
</g>
</g>
<g id="xtick20">
<g id="line2d51">
<g><use style="fill: none; stroke: rgb(0, 0, 0); stroke-width: 0.5; stroke-linejoin: round; stroke-linecap: butt; opacity: 1;" xlink:href="#m7bf2fe5dacaa730cd3124e81bdc4de9d" x="396.307692" y="388.800000"/>
</g></g>
<g id="line2d52">
<g><use style="fill: none; stroke: rgb(0, 0, 0); stroke-width: 0.5; stroke-linejoin: round; stroke-linecap: butt; opacity: 1;" xlink:href="#m7bf2fe5dacaa730cd3124e81bdc4de9d" x="396.307692" y="43.200000"/>
</g></g>
<g id="text9">
<defs>
<path id="c_b672e4bee30772019085dff1098f516d" d="M53.515625 -70.515625l0.000000 9.625000q-5.609375 -2.687500 -10.593750 -4.000000q-4.984375 -1.328125 -9.625000 -1.328125q-8.046875 0.000000 -12.421875 3.125000q-4.375000 3.125000 -4.375000 8.890625q0.000000 4.843750 2.906250 7.312500q2.906250 2.453125 11.015625 3.968750l5.953125 1.218750q11.031250 2.109375 16.281250 7.406250q5.250000 5.296875 5.250000 14.171875q0.000000 10.609375 -7.109375 16.078125q-7.093750 5.468750 -20.812500 5.468750q-5.171875 0.000000 -11.015625 -1.171875q-5.828125 -1.171875 -12.078125 -3.468750l0.000000 -10.156250q6.000000 3.359375 11.765625 5.078125q5.765625 1.703125 11.328125 1.703125q8.437500 0.000000 13.031250 -3.312500q4.593750 -3.328125 4.593750 -9.484375q0.000000 -5.359375 -3.296875 -8.390625q-3.296875 -3.031250 -10.812500 -4.546875l-6.015625 -1.171875q-11.031250 -2.187500 -15.968750 -6.875000q-4.921875 -4.687500 -4.921875 -13.046875q0.000000 -9.671875 6.812500 -15.234375q6.812500 -5.562500 18.765625 -5.562500q5.140625 0.000000 10.453125 0.937500q5.328125 0.921875 10.890625 2.765625"/>
</defs>
<g style="fill: rgb(0, 0, 0); opacity: 1;" transform="translate(385.714, 401.706) scale(0.12)">
<use xlink:href="#c_b672e4bee30772019085dff1098f516d"/>
<use xlink:href="#c_0bce5afba2dc6b9024b26277c38ad8e8" x="63.476562"/>
<use xlink:href="#c_f15a64fcd463ef4629c48bab42cde24c" x="125.000000"/>
</g>
</g>
</g>
<g id="xtick21">
<g id="line2d53">
<g><use style="fill: none; stroke: rgb(0, 0, 0); stroke-width: 0.5; stroke-linejoin: round; stroke-linecap: butt; opacity: 1;" xlink:href="#m7bf2fe5dacaa730cd3124e81bdc4de9d" x="434.461538" y="388.800000"/>
</g></g>
<g id="line2d54">
<g><use style="fill: none; stroke: rgb(0, 0, 0); stroke-width: 0.5; stroke-linejoin: round; stroke-linecap: butt; opacity: 1;" xlink:href="#m7bf2fe5dacaa730cd3124e81bdc4de9d" x="434.461538" y="43.200000"/>
</g></g>
<g id="text10">
<defs>
<path id="c_680e57528fc97ec49605e10827a40086" d="M39.406250 -66.218750q-10.750000 0.000000 -17.078125 8.015625q-6.312500 8.000000 -6.312500 21.828125q0.000000 13.765625 6.312500 21.781250q6.328125 8.000000 17.078125 8.000000q10.734375 0.000000 17.015625 -8.000000q6.281250 -8.015625 6.281250 -21.781250q0.000000 -13.828125 -6.281250 -21.828125q-6.281250 -8.015625 -17.015625 -8.015625M39.406250 -74.218750q15.328125 0.000000 24.500000 10.281250q9.187500 10.281250 9.187500 27.562500q0.000000 17.234375 -9.187500 27.515625q-9.171875 10.281250 -24.500000 10.281250q-15.375000 0.000000 -24.593750 -10.250000q-9.203125 -10.265625 -9.203125 -27.546875q0.000000 -17.281250 9.203125 -27.562500q9.218750 -10.281250 24.593750 -10.281250"/>
<path id="c_d650c37394b681142a10dfc54356d478" d="M48.781250 -52.593750l0.000000 8.406250q-3.812500 -2.109375 -7.640625 -3.156250q-3.828125 -1.046875 -7.734375 -1.046875q-8.750000 0.000000 -13.593750 5.546875q-4.828125 5.531250 -4.828125 15.546875q0.000000 10.015625 4.828125 15.562500q4.843750 5.531250 13.593750 5.531250q3.906250 0.000000 7.734375 -1.046875q3.828125 -1.046875 7.640625 -3.156250l0.000000 8.312500q-3.765625 1.750000 -7.796875 2.625000q-4.015625 0.890625 -8.562500 0.890625q-12.359375 0.000000 -19.640625 -7.765625q-7.265625 -7.765625 -7.265625 -20.953125q0.000000 -13.375000 7.343750 -21.031250q7.359375 -7.671875 20.156250 -7.671875q4.140625 0.000000 8.093750 0.859375q3.953125 0.843750 7.671875 2.546875"/>
<path id="c_0f8c41144cfbf448378cb6fd1cc8e549" d="M18.312500 -70.218750l0.000000 15.531250l18.500000 0.000000l0.000000 6.984375l-18.500000 0.000000l0.000000 29.687500q0.000000 6.687500 1.828125 8.593750q1.828125 1.906250 7.453125 1.906250l9.218750 0.000000l0.000000 7.515625l-9.218750 0.000000q-10.406250 0.000000 -14.359375 -3.875000q-3.953125 -3.890625 -3.953125 -14.140625l0.000000 -29.687500l-6.593750 0.000000l0.000000 -6.984375l6.593750 0.000000l0.000000 -15.531250z"/>
</defs>
<g style="fill: rgb(0, 0, 0); opacity: 1;" transform="translate(424.563, 401.706) scale(0.12)">
<use xlink:href="#c_680e57528fc97ec49605e10827a40086"/>
<use xlink:href="#c_d650c37394b681142a10dfc54356d478" x="78.710938"/>
<use xlink:href="#c_0f8c41144cfbf448378cb6fd1cc8e549" x="133.691406"/>
</g>
</g>
</g>
<g id="xtick22">
<g id="line2d55">
<g><use style="fill: none; stroke: rgb(0, 0, 0); stroke-width: 0.5; stroke-linejoin: round; stroke-linecap: butt; opacity: 1;" xlink:href="#m7bf2fe5dacaa730cd3124e81bdc4de9d" x="473.887179" y="388.800000"/>
</g></g>
<g id="line2d56">
<g><use style="fill: none; stroke: rgb(0, 0, 0); stroke-width: 0.5; stroke-linejoin: round; stroke-linecap: butt; opacity: 1;" xlink:href="#m7bf2fe5dacaa730cd3124e81bdc4de9d" x="473.887179" y="43.200000"/>
</g></g>
<g id="text11">
<defs>
<path id="c_fabc000b0fb83f456ee9f092ad635e20" d="M9.812500 -72.906250l13.281250 0.000000l32.328125 60.984375l0.000000 -60.984375l9.562500 0.000000l0.000000 72.906250l-13.281250 0.000000l-32.312500 -60.984375l0.000000 60.984375l-9.578125 0.000000z"/>
<path id="c_f05dd90d41f04bb96ef1ca503cc2044b" d="M30.609375 -48.390625q-7.218750 0.000000 -11.421875 5.640625q-4.203125 5.640625 -4.203125 15.453125q0.000000 9.812500 4.171875 15.453125q4.187500 5.640625 11.453125 5.640625q7.187500 0.000000 11.375000 -5.656250q4.203125 -5.671875 4.203125 -15.437500q0.000000 -9.718750 -4.203125 -15.406250q-4.187500 -5.687500 -11.375000 -5.687500M30.609375 -56.000000q11.718750 0.000000 18.406250 7.625000q6.703125 7.609375 6.703125 21.078125q0.000000 13.421875 -6.703125 21.078125q-6.687500 7.640625 -18.406250 7.640625q-11.765625 0.000000 -18.437500 -7.640625q-6.656250 -7.656250 -6.656250 -21.078125q0.000000 -13.468750 6.656250 -21.078125q6.671875 -7.625000 18.437500 -7.625000"/>
<path id="c_c48ceabac27bf136feba2f4bf2716ab6" d="M2.984375 -54.687500l9.515625 0.000000l17.093750 45.890625l17.093750 -45.890625l9.515625 0.000000l-20.515625 54.687500l-12.203125 0.000000z"/>
</defs>
<g style="fill: rgb(0, 0, 0); opacity: 1;" transform="translate(462.934, 401.55) scale(0.12)">
<use xlink:href="#c_fabc000b0fb83f456ee9f092ad635e20"/>
<use xlink:href="#c_f05dd90d41f04bb96ef1ca503cc2044b" x="74.804688"/>
<use xlink:href="#c_c48ceabac27bf136feba2f4bf2716ab6" x="135.986328"/>
</g>
</g>
</g>
<g id="xtick23">
<g id="line2d57">
<g><use style="fill: none; stroke: rgb(0, 0, 0); stroke-width: 0.5; stroke-linejoin: round; stroke-linecap: butt; opacity: 1;" xlink:href="#m7bf2fe5dacaa730cd3124e81bdc4de9d" x="512.041026" y="388.800000"/>
</g></g>
<g id="line2d58">
<g><use style="fill: none; stroke: rgb(0, 0, 0); stroke-width: 0.5; stroke-linejoin: round; stroke-linecap: butt; opacity: 1;" xlink:href="#m7bf2fe5dacaa730cd3124e81bdc4de9d" x="512.041026" y="43.200000"/>
</g></g>
<g id="text12">
<defs>
<path id="c_ff9441f72805bc441fcb0bfe0d774f13" d="M19.671875 -64.796875l0.000000 56.687500l11.921875 0.000000q15.093750 0.000000 22.093750 -6.828125q7.000000 -6.843750 7.000000 -21.593750q0.000000 -14.640625 -7.000000 -21.453125q-7.000000 -6.812500 -22.093750 -6.812500zM9.812500 -72.906250l20.265625 0.000000q21.187500 0.000000 31.093750 8.812500q9.921875 8.812500 9.921875 27.562500q0.000000 18.859375 -9.968750 27.703125q-9.953125 8.828125 -31.046875 8.828125l-20.265625 0.000000z"/>
</defs>
<g style="fill: rgb(0, 0, 0); opacity: 1;" transform="translate(501.385, 401.55) scale(0.12)">
<use xlink:href="#c_ff9441f72805bc441fcb0bfe0d774f13"/>
<use xlink:href="#c_0bce5afba2dc6b9024b26277c38ad8e8" x="77.001953"/>
<use xlink:href="#c_d650c37394b681142a10dfc54356d478" x="138.525391"/>
</g>
</g>
</g>
</g>
<g id="matplotlib.axis2">
<g id="ytick1">
<g id="line2d59">
<path style="fill: none; stroke: rgb(0, 0, 0); stroke-width: 0.5; stroke-linejoin: round; stroke-linecap: butt; stroke-dasharray: 1, 3; stroke-dashoffset: 0pt; opacity: 1;" clip-path="url(#p50431ccdcb28178602d99d9270004dde)" d="M72.000000 388.800000L518.400000 388.800000"/>
</g>
<g id="line2d60">
<defs><path id="m3400efa6b1638b3fea9e19e898273957" d="M0.000000 0.000000L4.000000 0.000000"/></defs>
<g><use style="fill: none; stroke: rgb(0, 0, 0); stroke-width: 0.5; stroke-linejoin: round; stroke-linecap: butt; opacity: 1;" xlink:href="#m3400efa6b1638b3fea9e19e898273957" x="72.000000" y="388.800000"/>
</g></g>
<g id="text13">
<defs>
<path id="c_ed3f3ed3ebfbd18bcb9c012009a68ad1" d="M19.187500 -8.296875l34.421875 0.000000l0.000000 8.296875l-46.281250 0.000000l0.000000 -8.296875q5.609375 -5.812500 15.296875 -15.593750q9.703125 -9.796875 12.187500 -12.640625q4.734375 -5.312500 6.609375 -9.000000q1.890625 -3.687500 1.890625 -7.250000q0.000000 -5.812500 -4.078125 -9.468750q-4.078125 -3.671875 -10.625000 -3.671875q-4.640625 0.000000 -9.796875 1.609375q-5.140625 1.609375 -11.000000 4.890625l0.000000 -9.968750q5.953125 -2.390625 11.125000 -3.609375q5.187500 -1.218750 9.484375 -1.218750q11.328125 0.000000 18.062500 5.671875q6.734375 5.656250 6.734375 15.125000q0.000000 4.500000 -1.687500 8.531250q-1.671875 4.015625 -6.125000 9.484375q-1.218750 1.421875 -7.765625 8.187500q-6.531250 6.765625 -18.453125 18.921875"/>
<path id="c_7a2040fe3b94fcd41d0a72c84e93b115" d="M31.781250 -66.406250q-7.609375 0.000000 -11.453125 7.500000q-3.828125 7.484375 -3.828125 22.531250q0.000000 14.984375 3.828125 22.484375q3.843750 7.500000 11.453125 7.500000q7.671875 0.000000 11.500000 -7.500000q3.843750 -7.500000 3.843750 -22.484375q0.000000 -15.046875 -3.843750 -22.531250q-3.828125 -7.500000 -11.500000 -7.500000M31.781250 -74.218750q12.265625 0.000000 18.734375 9.703125q6.468750 9.687500 6.468750 28.140625q0.000000 18.406250 -6.468750 28.109375q-6.468750 9.687500 -18.734375 9.687500q-12.250000 0.000000 -18.718750 -9.687500q-6.468750 -9.703125 -6.468750 -28.109375q0.000000 -18.453125 6.468750 -28.140625q6.468750 -9.703125 18.718750 -9.703125"/>
</defs>
<g style="fill: rgb(0, 0, 0); opacity: 1;" transform="translate(46.75, 393.167) scale(0.12)">
<use xlink:href="#c_ed3f3ed3ebfbd18bcb9c012009a68ad1"/>
<use xlink:href="#c_7a2040fe3b94fcd41d0a72c84e93b115" x="63.623047"/>
<use xlink:href="#c_7a2040fe3b94fcd41d0a72c84e93b115" x="127.246094"/>
</g>
</g>
</g>
<g id="ytick2">
<g id="line2d61">
<path style="fill: none; stroke: rgb(0, 0, 0); stroke-width: 0.5; stroke-linejoin: round; stroke-linecap: butt; stroke-dasharray: 1, 3; stroke-dashoffset: 0pt; opacity: 1;" clip-path="url(#p50431ccdcb28178602d99d9270004dde)" d="M72.000000 345.600000L518.400000 345.600000"/>
</g>
<g id="line2d62">
<g><use style="fill: none; stroke: rgb(0, 0, 0); stroke-width: 0.5; stroke-linejoin: round; stroke-linecap: butt; opacity: 1;" xlink:href="#m3400efa6b1638b3fea9e19e898273957" x="72.000000" y="345.600000"/>
</g></g>
<g id="text14">
<defs>
<path id="c_3dcfa38a02242cb63ec6726c6e70be7a" d="M40.578125 -39.312500q7.078125 1.515625 11.046875 6.312500q3.984375 4.781250 3.984375 11.812500q0.000000 10.781250 -7.421875 16.703125q-7.421875 5.906250 -21.093750 5.906250q-4.578125 0.000000 -9.437500 -0.906250q-4.859375 -0.906250 -10.031250 -2.718750l0.000000 -9.515625q4.093750 2.390625 8.968750 3.609375q4.890625 1.218750 10.218750 1.218750q9.265625 0.000000 14.125000 -3.656250q4.859375 -3.656250 4.859375 -10.640625q0.000000 -6.453125 -4.515625 -10.078125q-4.515625 -3.640625 -12.562500 -3.640625l-8.500000 0.000000l0.000000 -8.109375l8.890625 0.000000q7.265625 0.000000 11.125000 -2.906250q3.859375 -2.906250 3.859375 -8.375000q0.000000 -5.609375 -3.984375 -8.609375q-3.968750 -3.015625 -11.390625 -3.015625q-4.062500 0.000000 -8.703125 0.890625q-4.640625 0.875000 -10.203125 2.718750l0.000000 -8.781250q5.625000 -1.562500 10.531250 -2.343750q4.906250 -0.781250 9.250000 -0.781250q11.234375 0.000000 17.765625 5.109375q6.546875 5.093750 6.546875 13.781250q0.000000 6.062500 -3.468750 10.234375q-3.468750 4.171875 -9.859375 5.781250"/>
</defs>
<g style="fill: rgb(0, 0, 0); opacity: 1;" transform="translate(46.7969, 349.967) scale(0.12)">
<use xlink:href="#c_3dcfa38a02242cb63ec6726c6e70be7a"/>
<use xlink:href="#c_7a2040fe3b94fcd41d0a72c84e93b115" x="63.623047"/>
<use xlink:href="#c_7a2040fe3b94fcd41d0a72c84e93b115" x="127.246094"/>
</g>
</g>
</g>
<g id="ytick3">
<g id="line2d63">
<path style="fill: none; stroke: rgb(0, 0, 0); stroke-width: 0.5; stroke-linejoin: round; stroke-linecap: butt; stroke-dasharray: 1, 3; stroke-dashoffset: 0pt; opacity: 1;" clip-path="url(#p50431ccdcb28178602d99d9270004dde)" d="M72.000000 302.400000L518.400000 302.400000"/>
</g>
<g id="line2d64">
<g><use style="fill: none; stroke: rgb(0, 0, 0); stroke-width: 0.5; stroke-linejoin: round; stroke-linecap: butt; opacity: 1;" xlink:href="#m3400efa6b1638b3fea9e19e898273957" x="72.000000" y="302.400000"/>
</g></g>
<g id="text15">
<defs>
<path id="c_a0416418d96557a09b8c1332d34883ba" d="M37.796875 -64.312500l-24.906250 38.921875l24.906250 0.000000zM35.203125 -72.906250l12.406250 0.000000l0.000000 47.515625l10.406250 0.000000l0.000000 8.203125l-10.406250 0.000000l0.000000 17.187500l-9.812500 0.000000l0.000000 -17.187500l-32.906250 0.000000l0.000000 -9.515625z"/>
</defs>
<g style="fill: rgb(0, 0, 0); opacity: 1;" transform="translate(46.4688, 306.767) scale(0.12)">
<use xlink:href="#c_a0416418d96557a09b8c1332d34883ba"/>
<use xlink:href="#c_7a2040fe3b94fcd41d0a72c84e93b115" x="63.623047"/>
<use xlink:href="#c_7a2040fe3b94fcd41d0a72c84e93b115" x="127.246094"/>
</g>
</g>
</g>
<g id="ytick4">
<g id="line2d65">
<path style="fill: none; stroke: rgb(0, 0, 0); stroke-width: 0.5; stroke-linejoin: round; stroke-linecap: butt; stroke-dasharray: 1, 3; stroke-dashoffset: 0pt; opacity: 1;" clip-path="url(#p50431ccdcb28178602d99d9270004dde)" d="M72.000000 259.200000L518.400000 259.200000"/>
</g>
<g id="line2d66">
<g><use style="fill: none; stroke: rgb(0, 0, 0); stroke-width: 0.5; stroke-linejoin: round; stroke-linecap: butt; opacity: 1;" xlink:href="#m3400efa6b1638b3fea9e19e898273957" x="72.000000" y="259.200000"/>
</g></g>
<g id="text16">
<defs>
<path id="c_1260a2df50f305f3db244e29828f968e" d="M10.796875 -72.906250l38.718750 0.000000l0.000000 8.312500l-29.687500 0.000000l0.000000 17.859375q2.140625 -0.734375 4.281250 -1.093750q2.156250 -0.359375 4.312500 -0.359375q12.203125 0.000000 19.328125 6.687500q7.140625 6.687500 7.140625 18.109375q0.000000 11.765625 -7.328125 18.296875q-7.328125 6.515625 -20.656250 6.515625q-4.593750 0.000000 -9.359375 -0.781250q-4.750000 -0.781250 -9.828125 -2.343750l0.000000 -9.921875q4.390625 2.390625 9.078125 3.562500q4.687500 1.171875 9.906250 1.171875q8.453125 0.000000 13.375000 -4.437500q4.937500 -4.437500 4.937500 -12.062500q0.000000 -7.609375 -4.937500 -12.046875q-4.921875 -4.453125 -13.375000 -4.453125q-3.953125 0.000000 -7.890625 0.875000q-3.921875 0.875000 -8.015625 2.734375z"/>
</defs>
<g style="fill: rgb(0, 0, 0); opacity: 1;" transform="translate(46.7969, 263.567) scale(0.12)">
<use xlink:href="#c_1260a2df50f305f3db244e29828f968e"/>
<use xlink:href="#c_7a2040fe3b94fcd41d0a72c84e93b115" x="63.623047"/>
<use xlink:href="#c_7a2040fe3b94fcd41d0a72c84e93b115" x="127.246094"/>
</g>
</g>
</g>
<g id="ytick5">
<g id="line2d67">
<path style="fill: none; stroke: rgb(0, 0, 0); stroke-width: 0.5; stroke-linejoin: round; stroke-linecap: butt; stroke-dasharray: 1, 3; stroke-dashoffset: 0pt; opacity: 1;" clip-path="url(#p50431ccdcb28178602d99d9270004dde)" d="M72.000000 216.000000L518.400000 216.000000"/>
</g>
<g id="line2d68">
<g><use style="fill: none; stroke: rgb(0, 0, 0); stroke-width: 0.5; stroke-linejoin: round; stroke-linecap: butt; opacity: 1;" xlink:href="#m3400efa6b1638b3fea9e19e898273957" x="72.000000" y="216.000000"/>
</g></g>
<g id="text17">
<defs>
<path id="c_cc8d6d580d1b10c8632f7a42cd53db8a" d="M33.015625 -40.375000q-6.640625 0.000000 -10.531250 4.546875q-3.875000 4.531250 -3.875000 12.437500q0.000000 7.859375 3.875000 12.437500q3.890625 4.562500 10.531250 4.562500q6.640625 0.000000 10.515625 -4.562500q3.875000 -4.578125 3.875000 -12.437500q0.000000 -7.906250 -3.875000 -12.437500q-3.875000 -4.546875 -10.515625 -4.546875M52.593750 -71.296875l0.000000 8.984375q-3.718750 -1.750000 -7.500000 -2.671875q-3.781250 -0.937500 -7.500000 -0.937500q-9.765625 0.000000 -14.921875 6.593750q-5.140625 6.593750 -5.875000 19.921875q2.875000 -4.250000 7.218750 -6.515625q4.359375 -2.265625 9.578125 -2.265625q10.984375 0.000000 17.359375 6.671875q6.375000 6.656250 6.375000 18.125000q0.000000 11.234375 -6.640625 18.031250q-6.640625 6.781250 -17.671875 6.781250q-12.656250 0.000000 -19.343750 -9.687500q-6.687500 -9.703125 -6.687500 -28.109375q0.000000 -17.281250 8.203125 -27.562500q8.203125 -10.281250 22.015625 -10.281250q3.718750 0.000000 7.500000 0.734375q3.781250 0.734375 7.890625 2.187500"/>
</defs>
<g style="fill: rgb(0, 0, 0); opacity: 1;" transform="translate(46.7188, 220.367) scale(0.12)">
<use xlink:href="#c_cc8d6d580d1b10c8632f7a42cd53db8a"/>
<use xlink:href="#c_7a2040fe3b94fcd41d0a72c84e93b115" x="63.623047"/>
<use xlink:href="#c_7a2040fe3b94fcd41d0a72c84e93b115" x="127.246094"/>
</g>
</g>
</g>
<g id="ytick6">
<g id="line2d69">
<path style="fill: none; stroke: rgb(0, 0, 0); stroke-width: 0.5; stroke-linejoin: round; stroke-linecap: butt; stroke-dasharray: 1, 3; stroke-dashoffset: 0pt; opacity: 1;" clip-path="url(#p50431ccdcb28178602d99d9270004dde)" d="M72.000000 172.800000L518.400000 172.800000"/>
</g>
<g id="line2d70">
<g><use style="fill: none; stroke: rgb(0, 0, 0); stroke-width: 0.5; stroke-linejoin: round; stroke-linecap: butt; opacity: 1;" xlink:href="#m3400efa6b1638b3fea9e19e898273957" x="72.000000" y="172.800000"/>
</g></g>
<g id="text18">
<defs>
<path id="c_956f18cfdaf972f35a6c2b4aaac2532b" d="M8.203125 -72.906250l46.875000 0.000000l0.000000 4.203125l-26.468750 68.703125l-10.296875 0.000000l24.906250 -64.593750l-35.015625 0.000000z"/>
</defs>
<g style="fill: rgb(0, 0, 0); opacity: 1;" transform="translate(46.8594, 177.167) scale(0.12)">
<use xlink:href="#c_956f18cfdaf972f35a6c2b4aaac2532b"/>
<use xlink:href="#c_7a2040fe3b94fcd41d0a72c84e93b115" x="63.623047"/>
<use xlink:href="#c_7a2040fe3b94fcd41d0a72c84e93b115" x="127.246094"/>
</g>
</g>
</g>
<g id="ytick7">
<g id="line2d71">
<path style="fill: none; stroke: rgb(0, 0, 0); stroke-width: 0.5; stroke-linejoin: round; stroke-linecap: butt; stroke-dasharray: 1, 3; stroke-dashoffset: 0pt; opacity: 1;" clip-path="url(#p50431ccdcb28178602d99d9270004dde)" d="M72.000000 129.600000L518.400000 129.600000"/>
</g>
<g id="line2d72">
<g><use style="fill: none; stroke: rgb(0, 0, 0); stroke-width: 0.5; stroke-linejoin: round; stroke-linecap: butt; opacity: 1;" xlink:href="#m3400efa6b1638b3fea9e19e898273957" x="72.000000" y="129.600000"/>
</g></g>
<g id="text19">
<defs>
<path id="c_bef35738d52871942e50b9de9b122bab" d="M31.781250 -34.625000q-7.031250 0.000000 -11.062500 3.765625q-4.015625 3.765625 -4.015625 10.343750q0.000000 6.593750 4.015625 10.359375q4.031250 3.765625 11.062500 3.765625q7.031250 0.000000 11.078125 -3.781250q4.062500 -3.796875 4.062500 -10.343750q0.000000 -6.578125 -4.031250 -10.343750q-4.015625 -3.765625 -11.109375 -3.765625M21.921875 -38.812500q-6.343750 -1.562500 -9.890625 -5.906250q-3.531250 -4.359375 -3.531250 -10.609375q0.000000 -8.734375 6.218750 -13.812500q6.234375 -5.078125 17.062500 -5.078125q10.890625 0.000000 17.093750 5.078125q6.203125 5.078125 6.203125 13.812500q0.000000 6.250000 -3.546875 10.609375q-3.531250 4.343750 -9.828125 5.906250q7.125000 1.656250 11.093750 6.500000q3.984375 4.828125 3.984375 11.796875q0.000000 10.609375 -6.468750 16.281250q-6.468750 5.656250 -18.531250 5.656250q-12.046875 0.000000 -18.531250 -5.656250q-6.468750 -5.671875 -6.468750 -16.281250q0.000000 -6.968750 4.000000 -11.796875q4.015625 -4.843750 11.140625 -6.500000M18.312500 -54.390625q0.000000 5.656250 3.531250 8.828125q3.546875 3.171875 9.937500 3.171875q6.359375 0.000000 9.937500 -3.171875q3.593750 -3.171875 3.593750 -8.828125q0.000000 -5.671875 -3.593750 -8.843750q-3.578125 -3.171875 -9.937500 -3.171875q-6.390625 0.000000 -9.937500 3.171875q-3.531250 3.171875 -3.531250 8.843750"/>
</defs>
<g style="fill: rgb(0, 0, 0); opacity: 1;" transform="translate(46.6875, 133.967) scale(0.12)">
<use xlink:href="#c_bef35738d52871942e50b9de9b122bab"/>
<use xlink:href="#c_7a2040fe3b94fcd41d0a72c84e93b115" x="63.623047"/>
<use xlink:href="#c_7a2040fe3b94fcd41d0a72c84e93b115" x="127.246094"/>
</g>
</g>
</g>
<g id="ytick8">
<g id="line2d73">
<path style="fill: none; stroke: rgb(0, 0, 0); stroke-width: 0.5; stroke-linejoin: round; stroke-linecap: butt; stroke-dasharray: 1, 3; stroke-dashoffset: 0pt; opacity: 1;" clip-path="url(#p50431ccdcb28178602d99d9270004dde)" d="M72.000000 86.400000L518.400000 86.400000"/>
</g>
<g id="line2d74">
<g><use style="fill: none; stroke: rgb(0, 0, 0); stroke-width: 0.5; stroke-linejoin: round; stroke-linecap: butt; opacity: 1;" xlink:href="#m3400efa6b1638b3fea9e19e898273957" x="72.000000" y="86.400000"/>
</g></g>
<g id="text20">
<defs>
<path id="c_cd96f817f3cab988d24a2b49a5577fe6" d="M10.984375 -1.515625l0.000000 -8.984375q3.718750 1.765625 7.515625 2.687500q3.812500 0.921875 7.484375 0.921875q9.765625 0.000000 14.906250 -6.562500q5.156250 -6.562500 5.890625 -19.953125q-2.828125 4.203125 -7.187500 6.453125q-4.343750 2.250000 -9.609375 2.250000q-10.937500 0.000000 -17.312500 -6.609375q-6.375000 -6.625000 -6.375000 -18.109375q0.000000 -11.218750 6.640625 -18.000000q6.640625 -6.796875 17.671875 -6.796875q12.656250 0.000000 19.312500 9.703125q6.671875 9.687500 6.671875 28.140625q0.000000 17.234375 -8.187500 27.515625q-8.171875 10.281250 -21.984375 10.281250q-3.718750 0.000000 -7.531250 -0.734375q-3.796875 -0.734375 -7.906250 -2.203125M30.609375 -32.421875q6.640625 0.000000 10.515625 -4.531250q3.890625 -4.546875 3.890625 -12.468750q0.000000 -7.859375 -3.890625 -12.421875q-3.875000 -4.562500 -10.515625 -4.562500q-6.640625 0.000000 -10.515625 4.562500q-3.875000 4.562500 -3.875000 12.421875q0.000000 7.921875 3.875000 12.468750q3.875000 4.531250 10.515625 4.531250"/>
</defs>
<g style="fill: rgb(0, 0, 0); opacity: 1;" transform="translate(46.625, 90.7672) scale(0.12)">
<use xlink:href="#c_cd96f817f3cab988d24a2b49a5577fe6"/>
<use xlink:href="#c_7a2040fe3b94fcd41d0a72c84e93b115" x="63.623047"/>
<use xlink:href="#c_7a2040fe3b94fcd41d0a72c84e93b115" x="127.246094"/>
</g>
</g>
</g>
<g id="ytick9">
<g id="line2d75">
<path style="fill: none; stroke: rgb(0, 0, 0); stroke-width: 0.5; stroke-linejoin: round; stroke-linecap: butt; stroke-dasharray: 1, 3; stroke-dashoffset: 0pt; opacity: 1;" clip-path="url(#p50431ccdcb28178602d99d9270004dde)" d="M72.000000 43.200000L518.400000 43.200000"/>
</g>
<g id="line2d76">
<g><use style="fill: none; stroke: rgb(0, 0, 0); stroke-width: 0.5; stroke-linejoin: round; stroke-linecap: butt; opacity: 1;" xlink:href="#m3400efa6b1638b3fea9e19e898273957" x="72.000000" y="43.200000"/>
</g></g>
<g id="text21">
<defs>
<path id="c_42baa63129a918535c52adb20d687ea7" d="M12.406250 -8.296875l16.109375 0.000000l0.000000 -55.625000l-17.531250 3.515625l0.000000 -8.984375l17.437500 -3.515625l9.859375 0.000000l0.000000 64.609375l16.109375 0.000000l0.000000 8.296875l-41.984375 0.000000z"/>
</defs>
<g style="fill: rgb(0, 0, 0); opacity: 1;" transform="translate(39.5469, 47.5672) scale(0.12)">
<use xlink:href="#c_42baa63129a918535c52adb20d687ea7"/>
<use xlink:href="#c_7a2040fe3b94fcd41d0a72c84e93b115" x="63.623047"/>
<use xlink:href="#c_7a2040fe3b94fcd41d0a72c84e93b115" x="127.246094"/>
<use xlink:href="#c_7a2040fe3b94fcd41d0a72c84e93b115" x="190.869141"/>
</g>
</g>
</g>
<g id="text22">
<defs>
<path id="c_6a63bda47b2f3da1cec6aadd80692cfe" d="M9.421875 -54.687500l8.984375 0.000000l0.000000 54.687500l-8.984375 0.000000zM9.421875 -75.984375l8.984375 0.000000l0.000000 11.390625l-8.984375 0.000000z"/>
<path id="c_74d54c94aa871ec39e2bc6697dde6c00" d="M54.890625 -33.015625l0.000000 33.015625l-8.984375 0.000000l0.000000 -32.718750q0.000000 -7.765625 -3.031250 -11.609375q-3.031250 -3.859375 -9.078125 -3.859375q-7.281250 0.000000 -11.484375 4.640625q-4.203125 4.625000 -4.203125 12.640625l0.000000 30.906250l-9.031250 0.000000l0.000000 -75.984375l9.031250 0.000000l0.000000 29.796875q3.234375 -4.937500 7.593750 -7.375000q4.375000 -2.437500 10.093750 -2.437500q9.421875 0.000000 14.250000 5.828125q4.843750 5.828125 4.843750 17.156250"/>
<path id="c_d41d8cd98f00b204e9800998ecf8427e" d=""/>
<path id="c_5e9f44da4350eed47d2641510279ca20" d="M9.812500 -72.906250l9.859375 0.000000l0.000000 29.890625l35.843750 0.000000l0.000000 -29.890625l9.859375 0.000000l0.000000 72.906250l-9.859375 0.000000l0.000000 -34.718750l-35.843750 0.000000l0.000000 34.718750l-9.859375 0.000000z"/>
<path id="c_8e0810ad13fe20a2a87a2619799b154d" d="M44.281250 -53.078125l0.000000 8.500000q-3.796875 -1.953125 -7.906250 -2.921875q-4.093750 -0.984375 -8.500000 -0.984375q-6.687500 0.000000 -10.031250 2.046875q-3.343750 2.046875 -3.343750 6.156250q0.000000 3.125000 2.390625 4.906250q2.390625 1.781250 9.625000 3.390625l3.078125 0.687500q9.562500 2.046875 13.593750 5.781250q4.031250 3.734375 4.031250 10.421875q0.000000 7.625000 -6.031250 12.078125q-6.031250 4.437500 -16.578125 4.437500q-4.390625 0.000000 -9.156250 -0.859375q-4.765625 -0.859375 -10.031250 -2.562500l0.000000 -9.281250q4.984375 2.593750 9.812500 3.890625q4.828125 1.281250 9.578125 1.281250q6.343750 0.000000 9.750000 -2.171875q3.421875 -2.171875 3.421875 -6.125000q0.000000 -3.656250 -2.468750 -5.609375q-2.453125 -1.953125 -10.812500 -3.765625l-3.125000 -0.734375q-8.343750 -1.750000 -12.062500 -5.390625q-3.703125 -3.640625 -3.703125 -9.984375q0.000000 -7.718750 5.468750 -11.906250q5.468750 -4.203125 15.531250 -4.203125q4.968750 0.000000 9.359375 0.734375q4.406250 0.718750 8.109375 2.187500"/>
</defs>
<g style="fill: rgb(0, 0, 0); opacity: 1;" transform="translate(34.5469, 249.453) rotate(-90) scale(0.12)">
<use xlink:href="#c_5d9b0d099c491f27a9f40b391fa98eef"/>
<use xlink:href="#c_5099edb83619131346ae654950954dea" x="57.519531"/>
<use xlink:href="#c_6a63bda47b2f3da1cec6aadd80692cfe" x="85.302734"/>
<use xlink:href="#c_e3864de5dabf2f8dd9eee74726882ec1" x="113.085938"/>
<use xlink:href="#c_74d54c94aa871ec39e2bc6697dde6c00" x="176.562500"/>
<use xlink:href="#c_0f8c41144cfbf448378cb6fd1cc8e549" x="239.941406"/>
<use xlink:href="#c_d41d8cd98f00b204e9800998ecf8427e" x="279.150391"/>
<use xlink:href="#c_5e9f44da4350eed47d2641510279ca20" x="310.937500"/>
<use xlink:href="#c_f05dd90d41f04bb96ef1ca503cc2044b" x="386.132812"/>
<use xlink:href="#c_c438d87e693443c2861ebd6359e6491e" x="447.314453"/>
<use xlink:href="#c_6ec8d5749226675394676a5d2a3b468b" x="510.693359"/>
<use xlink:href="#c_8e0810ad13fe20a2a87a2619799b154d" x="551.806641"/>
</g>
</g>
</g>
<g id="patch3">
<path style="fill: none; stroke: rgb(0, 0, 0); stroke-width: 1; stroke-linejoin: round; stroke-linecap: square; opacity: 1;" d="M72.000000 43.200000L518.400000 43.200000"/>
</g>
<g id="patch4">
<path style="fill: none; stroke: rgb(0, 0, 0); stroke-width: 1; stroke-linejoin: round; stroke-linecap: square; opacity: 1;" d="M518.400000 388.800000L518.400000 43.200000"/>
</g>
<g id="patch5">
<path style="fill: none; stroke: rgb(0, 0, 0); stroke-width: 1; stroke-linejoin: round; stroke-linecap: square; opacity: 1;" d="M72.000000 388.800000L518.400000 388.800000"/>
</g>
<g id="patch6">
<path style="fill: none; stroke: rgb(0, 0, 0); stroke-width: 1; stroke-linejoin: round; stroke-linecap: square; opacity: 1;" d="M72.000000 388.800000L72.000000 43.200000"/>
</g>
</g>
<g id="axes2">
<g id="line2d77">
<path style="fill: none; stroke: rgb(193, 66, 66); stroke-width: 1; stroke-linejoin: round; stroke-linecap: square; opacity: 1;" clip-path="url(#p50431ccdcb28178602d99d9270004dde)" d="M73.271795 388.800000L83.446154 388.800000L85.989744 382.875429 L94.892308 382.875429L96.164103 379.419429L97.435897 379.419429 L98.707692 375.963429L102.523077 375.963429L103.794872 371.766857 L121.600000 371.766857L124.143590 377.691429L126.687179 377.691429 L129.230769 370.285714L130.502564 362.139429L131.774359 362.139429 L133.046154 353.499429L134.317949 356.955429L135.589744 356.955429 L136.861538 360.411429L139.405128 360.411429L140.676923 353.252571 L141.948718 357.449143L144.492308 357.449143L145.764103 353.746286 L147.035897 347.081143L148.307692 347.081143L149.579487 339.675429 L150.851282 326.838857L153.394872 326.838857L154.666667 323.382857 L155.938462 315.730286L158.482051 307.584000L159.753846 293.266286 L163.569231 271.542857L164.841026 266.852571L167.384615 260.681143 L168.656410 261.421714L169.928205 258.212571L171.200000 266.852571 L172.471795 264.137143L173.743590 259.446857L175.015385 249.325714 L177.558974 224.393143L178.830769 229.824000L182.646154 229.824000 L183.917949 230.564571L185.189744 223.405714L186.461538 223.405714 L187.733333 219.456000L189.005128 225.133714L191.548718 203.657143 L192.820513 193.536000L194.092308 192.795429L195.364103 196.498286 L196.635897 197.238857L197.907692 200.941714L200.451282 215.259429 L201.723077 215.259429L202.994872 218.221714L204.266667 224.886857 L205.538462 225.380571L206.810256 226.368000L208.082051 226.121143 L210.625641 209.334857L211.897436 209.828571L214.441026 232.539429 L215.712821 235.501714L216.984615 237.229714L218.256410 235.995429 L219.528205 235.995429L220.800000 229.083429L222.071795 229.083429 L223.343590 239.451429L224.615385 232.292571L225.887179 243.648000 L228.430769 259.446857L229.702564 269.321143L230.974359 271.789714 L232.246154 280.182857L233.517949 280.182857L234.789744 270.308571 L236.061538 266.852571L237.333333 261.421714L238.605128 258.953143 L239.876923 260.187429L241.148718 261.915429L242.420513 254.756571 L243.692308 253.275429L244.964103 259.693714L246.235897 257.225143 L247.507692 259.200000L248.779487 263.890286L250.051282 266.112000 L251.323077 264.384000L252.594872 256.484571L253.866667 255.003429 L255.138462 251.053714L256.410256 252.288000L257.682051 252.288000 L258.953846 253.275429L260.225641 242.907429L261.497436 243.154286 L262.769231 244.882286L264.041026 240.192000L265.312821 230.070857 L267.856410 207.606857L269.128205 215.259429L270.400000 215.259429 L271.671795 209.581714L272.943590 219.209143L274.215385 223.158857 L276.758974 220.196571L278.030769 220.937143L279.302564 216.987429 L280.574359 210.075429L281.846154 205.878857L283.117949 200.201143 L284.389744 198.966857L285.661538 195.757714L286.933333 197.979429 L288.205128 193.536000L289.476923 185.142857L292.020513 188.352000 L293.292308 192.301714L294.564103 192.301714L295.835897 188.352000 L297.107692 190.326857L298.379487 203.657143L299.651282 203.410286 L302.194872 213.531429L304.738462 233.280000L306.010256 238.957714 L307.282051 235.254857L308.553846 227.108571L309.825641 232.786286 L311.097436 234.020571L312.369231 244.141714L313.641026 251.053714 L314.912821 251.053714L316.184615 253.275429L317.456410 253.769143 L318.728205 263.890286L321.271795 276.233143L322.543590 274.505143 L323.815385 280.429714L325.087179 273.517714L326.358974 275.492571 L327.630769 285.613714L328.902564 286.601143L330.174359 283.638857 L331.446154 277.220571L332.717949 277.220571L333.989744 274.011429 L335.261538 272.283429L336.533333 272.283429L337.805128 264.877714 L340.348718 264.877714L341.620513 261.915429L342.892308 256.978286 L344.164103 257.718857L345.435897 259.200000L346.707692 255.497143 L347.979487 247.597714L349.251282 247.597714L351.794872 239.698286 L353.066667 240.685714L354.338462 234.267429L355.610256 225.627429 L356.882051 229.577143L358.153846 235.008000L359.425641 231.058286 L360.697436 233.526857L361.969231 234.020571L363.241026 236.736000 L364.512821 236.982857L365.784615 229.577143L368.328205 244.141714 L369.600000 233.033143L370.871795 233.033143L372.143590 240.192000 L373.415385 234.514286L374.687179 224.146286L375.958974 220.443429 L378.502564 185.883429L379.774359 179.218286L381.046154 179.958857 L382.317949 172.059429L383.589744 174.034286L384.861538 173.787429 L386.133333 181.686857L388.676923 166.381714L389.948718 163.419429 L392.492308 162.185143L393.764103 168.356571L395.035897 168.356571 L396.307692 156.507429L397.579487 127.131429L398.851282 123.428571 L400.123077 103.926857L401.394872 104.667429L402.666667 97.261714 L403.938462 93.558857L405.210256 83.190857L406.482051 82.697143 L407.753846 100.224000L410.297436 76.772571L412.841026 78.253714 L414.112821 81.956571L415.384615 82.697143L416.656410 88.374857 L417.928205 86.893714L419.200000 90.102857L420.471795 77.019429 L421.743590 80.722286L423.015385 88.621714L424.287179 88.621714 L425.558974 85.165714L426.830769 87.140571L428.102564 83.437714 L430.646154 89.856000L431.917949 85.412571L433.189744 74.304000 L437.005128 106.889143L438.276923 130.093714L439.548718 123.675429 L440.820513 124.909714L443.364103 146.386286L444.635897 137.005714 L445.907692 137.005714L447.179487 138.733714L449.723077 133.056000 L450.994872 132.562286L453.538462 147.126857L454.810256 158.235429 L457.353846 165.394286L458.625641 189.586286L459.897436 183.168000 L461.169231 184.155429L462.441026 184.155429L463.712821 190.080000 L464.984615 198.720000L466.256410 202.916571L467.528205 191.314286 L468.800000 191.808000L470.071795 189.092571L471.343590 193.536000 L472.615385 186.624000L473.887179 196.992000L475.158974 200.941714 L476.430769 200.941714L477.702564 199.460571L478.974359 206.125714 L481.517949 185.389714L482.789744 186.377143L484.061538 177.490286 L485.333333 173.540571L486.605128 185.389714L487.876923 183.661714 L489.148718 193.782857L490.420513 194.523429L491.692308 204.150857 L492.964103 204.150857L494.235897 211.309714L495.507692 215.259429 L498.051282 201.188571L500.594872 200.941714L501.866667 208.594286 L503.138462 204.891429L504.410256 211.556571L505.682051 223.158857 L506.953846 212.050286L508.225641 221.430857L510.769231 235.008000 L512.041026 243.401143L514.584615 243.401143L515.856410 258.459429 L517.128205 262.162286L519.671795 282.898286L519.671795 282.898286"/>
</g>
<g id="matplotlib.axis3">
<g id="ytick10">
<g id="line2d78">
<defs><path id="m20b58b2501143cb5e0a5e8f1ef6f1643" d="M0.000000 0.000000L-4.000000 0.000000"/></defs>
<g><use style="fill: none; stroke: rgb(0, 0, 0); stroke-width: 0.5; stroke-linejoin: round; stroke-linecap: butt; opacity: 1;" xlink:href="#m20b58b2501143cb5e0a5e8f1ef6f1643" x="518.400000" y="388.800000"/>
</g></g>
<g id="text23">
<g style="fill: rgb(193, 66, 66); opacity: 1;" transform="translate(522.4, 393.167) scale(0.12)">
<use xlink:href="#c_7a2040fe3b94fcd41d0a72c84e93b115"/>
</g>
</g>
</g>
<g id="ytick11">
<g id="line2d79">
<g><use style="fill: none; stroke: rgb(0, 0, 0); stroke-width: 0.5; stroke-linejoin: round; stroke-linecap: butt; opacity: 1;" xlink:href="#m20b58b2501143cb5e0a5e8f1ef6f1643" x="518.400000" y="339.428571"/>
</g></g>
<g id="text24">
<g style="fill: rgb(193, 66, 66); opacity: 1;" transform="translate(522.4, 343.796) scale(0.12)">
<use xlink:href="#c_ed3f3ed3ebfbd18bcb9c012009a68ad1"/>
<use xlink:href="#c_7a2040fe3b94fcd41d0a72c84e93b115" x="63.623047"/>
</g>
</g>
</g>
<g id="ytick12">
<g id="line2d80">
<g><use style="fill: none; stroke: rgb(0, 0, 0); stroke-width: 0.5; stroke-linejoin: round; stroke-linecap: butt; opacity: 1;" xlink:href="#m20b58b2501143cb5e0a5e8f1ef6f1643" x="518.400000" y="290.057143"/>
</g></g>
<g id="text25">
<g style="fill: rgb(193, 66, 66); opacity: 1;" transform="translate(522.4, 294.424) scale(0.12)">
<use xlink:href="#c_a0416418d96557a09b8c1332d34883ba"/>
<use xlink:href="#c_7a2040fe3b94fcd41d0a72c84e93b115" x="63.623047"/>
</g>
</g>
</g>
<g id="ytick13">
<g id="line2d81">
<g><use style="fill: none; stroke: rgb(0, 0, 0); stroke-width: 0.5; stroke-linejoin: round; stroke-linecap: butt; opacity: 1;" xlink:href="#m20b58b2501143cb5e0a5e8f1ef6f1643" x="518.400000" y="240.685714"/>
</g></g>
<g id="text26">
<g style="fill: rgb(193, 66, 66); opacity: 1;" transform="translate(522.4, 245.053) scale(0.12)">
<use xlink:href="#c_cc8d6d580d1b10c8632f7a42cd53db8a"/>
<use xlink:href="#c_7a2040fe3b94fcd41d0a72c84e93b115" x="63.623047"/>
</g>
</g>
</g>
<g id="ytick14">
<g id="line2d82">
<g><use style="fill: none; stroke: rgb(0, 0, 0); stroke-width: 0.5; stroke-linejoin: round; stroke-linecap: butt; opacity: 1;" xlink:href="#m20b58b2501143cb5e0a5e8f1ef6f1643" x="518.400000" y="191.314286"/>
</g></g>
<g id="text27">
<g style="fill: rgb(193, 66, 66); opacity: 1;" transform="translate(522.4, 195.681) scale(0.12)">
<use xlink:href="#c_bef35738d52871942e50b9de9b122bab"/>
<use xlink:href="#c_7a2040fe3b94fcd41d0a72c84e93b115" x="63.623047"/>
</g>
</g>
</g>
<g id="ytick15">
<g id="line2d83">
<g><use style="fill: none; stroke: rgb(0, 0, 0); stroke-width: 0.5; stroke-linejoin: round; stroke-linecap: butt; opacity: 1;" xlink:href="#m20b58b2501143cb5e0a5e8f1ef6f1643" x="518.400000" y="141.942857"/>
</g></g>
<g id="text28">
<g style="fill: rgb(193, 66, 66); opacity: 1;" transform="translate(522.4, 146.31) scale(0.12)">
<use xlink:href="#c_42baa63129a918535c52adb20d687ea7"/>
<use xlink:href="#c_7a2040fe3b94fcd41d0a72c84e93b115" x="63.623047"/>
<use xlink:href="#c_7a2040fe3b94fcd41d0a72c84e93b115" x="127.246094"/>
</g>
</g>
</g>
<g id="ytick16">
<g id="line2d84">
<g><use style="fill: none; stroke: rgb(0, 0, 0); stroke-width: 0.5; stroke-linejoin: round; stroke-linecap: butt; opacity: 1;" xlink:href="#m20b58b2501143cb5e0a5e8f1ef6f1643" x="518.400000" y="92.571429"/>
</g></g>
<g id="text29">
<g style="fill: rgb(193, 66, 66); opacity: 1;" transform="translate(522.4, 96.9386) scale(0.12)">
<use xlink:href="#c_42baa63129a918535c52adb20d687ea7"/>
<use xlink:href="#c_ed3f3ed3ebfbd18bcb9c012009a68ad1" x="63.623047"/>
<use xlink:href="#c_7a2040fe3b94fcd41d0a72c84e93b115" x="127.246094"/>
</g>
</g>
</g>
<g id="ytick17">
<g id="line2d85">
<g><use style="fill: none; stroke: rgb(0, 0, 0); stroke-width: 0.5; stroke-linejoin: round; stroke-linecap: butt; opacity: 1;" xlink:href="#m20b58b2501143cb5e0a5e8f1ef6f1643" x="518.400000" y="43.200000"/>
</g></g>
<g id="text30">
<g style="fill: rgb(193, 66, 66); opacity: 1;" transform="translate(522.4, 47.5672) scale(0.12)">
<use xlink:href="#c_42baa63129a918535c52adb20d687ea7"/>
<use xlink:href="#c_a0416418d96557a09b8c1332d34883ba" x="63.623047"/>
<use xlink:href="#c_7a2040fe3b94fcd41d0a72c84e93b115" x="127.246094"/>
</g>
</g>
</g>
<g id="text31">
<defs>
<path id="c_4653c6dfde66c7610eae0911760d3490" d="M52.000000 -44.187500q3.375000 -6.062500 8.062500 -8.937500q4.687500 -2.875000 11.031250 -2.875000q8.546875 0.000000 13.187500 5.984375q4.640625 5.968750 4.640625 17.000000l0.000000 33.015625l-9.031250 0.000000l0.000000 -32.718750q0.000000 -7.859375 -2.796875 -11.656250q-2.781250 -3.812500 -8.484375 -3.812500q-6.984375 0.000000 -11.046875 4.640625q-4.046875 4.625000 -4.046875 12.640625l0.000000 30.906250l-9.031250 0.000000l0.000000 -32.718750q0.000000 -7.906250 -2.781250 -11.687500q-2.781250 -3.781250 -8.593750 -3.781250q-6.890625 0.000000 -10.953125 4.656250q-4.046875 4.656250 -4.046875 12.625000l0.000000 30.906250l-9.031250 0.000000l0.000000 -54.687500l9.031250 0.000000l0.000000 8.500000q3.078125 -5.031250 7.375000 -7.421875q4.296875 -2.390625 10.203125 -2.390625q5.968750 0.000000 10.140625 3.031250q4.171875 3.015625 6.171875 8.781250"/>
</defs>
<g style="fill: rgb(193, 66, 66); opacity: 1;" transform="translate(559.838, 282.5) rotate(-90) scale(0.12)">
<use xlink:href="#c_5d9b0d099c491f27a9f40b391fa98eef"/>
<use xlink:href="#c_5099edb83619131346ae654950954dea" x="57.519531"/>
<use xlink:href="#c_6a63bda47b2f3da1cec6aadd80692cfe" x="85.302734"/>
<use xlink:href="#c_e3864de5dabf2f8dd9eee74726882ec1" x="113.085938"/>
<use xlink:href="#c_74d54c94aa871ec39e2bc6697dde6c00" x="176.562500"/>
<use xlink:href="#c_0f8c41144cfbf448378cb6fd1cc8e549" x="239.941406"/>
<use xlink:href="#c_d41d8cd98f00b204e9800998ecf8427e" x="279.150391"/>
<use xlink:href="#c_5e9f44da4350eed47d2641510279ca20" x="310.937500"/>
<use xlink:href="#c_f05dd90d41f04bb96ef1ca503cc2044b" x="386.132812"/>
<use xlink:href="#c_c438d87e693443c2861ebd6359e6491e" x="447.314453"/>
<use xlink:href="#c_6ec8d5749226675394676a5d2a3b468b" x="510.693359"/>
<use xlink:href="#c_8e0810ad13fe20a2a87a2619799b154d" x="551.806641"/>
<use xlink:href="#c_d41d8cd98f00b204e9800998ecf8427e" x="603.906250"/>
<use xlink:href="#c_f15a64fcd463ef4629c48bab42cde24c" x="635.693359"/>
<use xlink:href="#c_0bce5afba2dc6b9024b26277c38ad8e8" x="699.169922"/>
<use xlink:href="#c_6ec8d5749226675394676a5d2a3b468b" x="760.693359"/>
<use xlink:href="#c_d41d8cd98f00b204e9800998ecf8427e" x="801.806641"/>
<use xlink:href="#c_4653c6dfde66c7610eae0911760d3490" x="833.593750"/>
<use xlink:href="#c_f05dd90d41f04bb96ef1ca503cc2044b" x="931.005859"/>
<use xlink:href="#c_fe791a90f5471e2ab20a5ed41a7fa451" x="992.187500"/>
<use xlink:href="#c_0f8c41144cfbf448378cb6fd1cc8e549" x="1055.566406"/>
<use xlink:href="#c_74d54c94aa871ec39e2bc6697dde6c00" x="1094.775391"/>
</g>
</g>
</g>
</g>
<g id="text32">
<defs>
<path id="c_9e4b30cbdf32072672ded72e9074c4c9" d="M-0.296875 -72.906250l61.671875 0.000000l0.000000 8.312500l-25.875000 0.000000l0.000000 64.593750l-9.906250 0.000000l0.000000 -64.593750l-25.890625 0.000000z"/>
<path id="c_518d586bee075aa0153eaebfcb5ab11f" d="M19.671875 -64.796875l0.000000 27.390625l12.406250 0.000000q6.890625 0.000000 10.640625 -3.562500q3.765625 -3.562500 3.765625 -10.156250q0.000000 -6.546875 -3.765625 -10.109375q-3.750000 -3.562500 -10.640625 -3.562500zM9.812500 -72.906250l22.265625 0.000000q12.265625 0.000000 18.531250 5.546875q6.281250 5.546875 6.281250 16.234375q0.000000 10.796875 -6.281250 16.312500q-6.265625 5.515625 -18.531250 5.515625l-12.406250 0.000000l0.000000 29.296875l-9.859375 0.000000z"/>
</defs>
<g style="fill: rgb(0, 0, 0); opacity: 1;" transform="translate(216.227, 22.17) scale(0.18)">
<use xlink:href="#c_9e4b30cbdf32072672ded72e9074c4c9"/>
<use xlink:href="#c_f05dd90d41f04bb96ef1ca503cc2044b" x="44.083984"/>
<use xlink:href="#c_0f8c41144cfbf448378cb6fd1cc8e549" x="105.265625"/>
<use xlink:href="#c_01d93a582460e35a7945ca50d148ffeb" x="144.474609"/>
<use xlink:href="#c_5099edb83619131346ae654950954dea" x="205.753906"/>
<use xlink:href="#c_d41d8cd98f00b204e9800998ecf8427e" x="233.537109"/>
<use xlink:href="#c_518d586bee075aa0153eaebfcb5ab11f" x="265.324219"/>
<use xlink:href="#c_6ec8d5749226675394676a5d2a3b468b" x="323.876953"/>
<use xlink:href="#c_f05dd90d41f04bb96ef1ca503cc2044b" x="362.740234"/>
<use xlink:href="#c_e3864de5dabf2f8dd9eee74726882ec1" x="423.921875"/>
<use xlink:href="#c_0bce5afba2dc6b9024b26277c38ad8e8" x="487.398438"/>
<use xlink:href="#c_8e0810ad13fe20a2a87a2619799b154d" x="548.921875"/>
<use xlink:href="#c_8e0810ad13fe20a2a87a2619799b154d" x="601.021484"/>
<use xlink:href="#c_6a63bda47b2f3da1cec6aadd80692cfe" x="653.121094"/>
<use xlink:href="#c_f05dd90d41f04bb96ef1ca503cc2044b" x="680.904297"/>
<use xlink:href="#c_fe791a90f5471e2ab20a5ed41a7fa451" x="742.085938"/>
</g>
</g>
<g id="text33">
<defs>
<path id="c_d821beae607506e87470f334d9ff47af" d="M45.406250 -46.390625l0.000000 -29.593750l8.984375 0.000000l0.000000 75.984375l-8.984375 0.000000l0.000000 -8.203125q-2.828125 4.875000 -7.156250 7.250000q-4.312500 2.375000 -10.375000 2.375000q-9.906250 0.000000 -16.140625 -7.906250q-6.218750 -7.921875 -6.218750 -20.812500q0.000000 -12.890625 6.218750 -20.796875q6.234375 -7.906250 16.140625 -7.906250q6.062500 0.000000 10.375000 2.375000q4.328125 2.359375 7.156250 7.234375M14.796875 -27.296875q0.000000 9.906250 4.078125 15.546875q4.078125 5.640625 11.203125 5.640625q7.125000 0.000000 11.218750 -5.640625q4.109375 -5.640625 4.109375 -15.546875q0.000000 -9.906250 -4.109375 -15.546875q-4.093750 -5.640625 -11.218750 -5.640625q-7.125000 0.000000 -11.203125 5.640625q-4.078125 5.640625 -4.078125 15.546875"/>
<path id="c_83c92fcf7184248154f741f54a0382f5" d="M11.718750 -12.406250l10.296875 0.000000l0.000000 8.406250l-8.000000 15.625000l-6.296875 0.000000l4.000000 -15.625000z"/>
</defs>
<g style="fill: rgb(0, 0, 0); opacity: 1;" transform="translate(166.516, 36.8019) scale(0.1)">
<use xlink:href="#c_5d9b0d099c491f27a9f40b391fa98eef"/>
<use xlink:href="#c_6ec8d5749226675394676a5d2a3b468b" x="50.269531"/>
<use xlink:href="#c_f05dd90d41f04bb96ef1ca503cc2044b" x="89.132812"/>
<use xlink:href="#c_4653c6dfde66c7610eae0911760d3490" x="150.314453"/>
<use xlink:href="#c_d41d8cd98f00b204e9800998ecf8427e" x="247.726562"/>
<use xlink:href="#c_54624f4845a86755fe6d2d7ebbf10290" x="279.513672"/>
<use xlink:href="#c_01d93a582460e35a7945ca50d148ffeb" x="309.005859"/>
<use xlink:href="#c_fe791a90f5471e2ab20a5ed41a7fa451" x="370.285156"/>
<use xlink:href="#c_c438d87e693443c2861ebd6359e6491e" x="433.664062"/>
<use xlink:href="#c_01d93a582460e35a7945ca50d148ffeb" x="497.042969"/>
<use xlink:href="#c_6ec8d5749226675394676a5d2a3b468b" x="558.322266"/>
<use xlink:href="#c_3fe22c4af425ac970aec982ae9662abe" x="599.435547"/>
<use xlink:href="#c_d41d8cd98f00b204e9800998ecf8427e" x="658.615234"/>
<use xlink:href="#c_3dcfa38a02242cb63ec6726c6e70be7a" x="690.402344"/>
<use xlink:href="#c_6ec8d5749226675394676a5d2a3b468b" x="754.025391"/>
<use xlink:href="#c_d821beae607506e87470f334d9ff47af" x="793.388672"/>
<use xlink:href="#c_83c92fcf7184248154f741f54a0382f5" x="856.865234"/>
<use xlink:href="#c_d41d8cd98f00b204e9800998ecf8427e" x="888.652344"/>
<use xlink:href="#c_ed3f3ed3ebfbd18bcb9c012009a68ad1" x="920.439453"/>
<use xlink:href="#c_7a2040fe3b94fcd41d0a72c84e93b115" x="984.062500"/>
<use xlink:href="#c_7a2040fe3b94fcd41d0a72c84e93b115" x="1047.685547"/>
<use xlink:href="#c_956f18cfdaf972f35a6c2b4aaac2532b" x="1111.308594"/>
<use xlink:href="#c_d41d8cd98f00b204e9800998ecf8427e" x="1174.931641"/>
<use xlink:href="#c_0f8c41144cfbf448378cb6fd1cc8e549" x="1206.718750"/>
<use xlink:href="#c_f05dd90d41f04bb96ef1ca503cc2044b" x="1245.927734"/>
<use xlink:href="#c_d41d8cd98f00b204e9800998ecf8427e" x="1307.109375"/>
<use xlink:href="#c_ff9441f72805bc441fcb0bfe0d774f13" x="1338.896484"/>
<use xlink:href="#c_0bce5afba2dc6b9024b26277c38ad8e8" x="1415.898438"/>
<use xlink:href="#c_d650c37394b681142a10dfc54356d478" x="1477.421875"/>
<use xlink:href="#c_0bce5afba2dc6b9024b26277c38ad8e8" x="1532.402344"/>
<use xlink:href="#c_4653c6dfde66c7610eae0911760d3490" x="1593.925781"/>
<use xlink:href="#c_5cc9741494d2ad8f9764e03ae145569f" x="1691.337891"/>
<use xlink:href="#c_0bce5afba2dc6b9024b26277c38ad8e8" x="1754.814453"/>
<use xlink:href="#c_6ec8d5749226675394676a5d2a3b468b" x="1816.337891"/>
<use xlink:href="#c_d41d8cd98f00b204e9800998ecf8427e" x="1857.451172"/>
<use xlink:href="#c_ed3f3ed3ebfbd18bcb9c012009a68ad1" x="1889.238281"/>
<use xlink:href="#c_7a2040fe3b94fcd41d0a72c84e93b115" x="1952.861328"/>
<use xlink:href="#c_0f8c41144cfbf448378cb6fd1cc8e549" x="2016.484375"/>
<use xlink:href="#c_74d54c94aa871ec39e2bc6697dde6c00" x="2055.693359"/>
<use xlink:href="#c_83c92fcf7184248154f741f54a0382f5" x="2119.072266"/>
<use xlink:href="#c_d41d8cd98f00b204e9800998ecf8427e" x="2150.859375"/>
<use xlink:href="#c_ed3f3ed3ebfbd18bcb9c012009a68ad1" x="2182.646484"/>
<use xlink:href="#c_7a2040fe3b94fcd41d0a72c84e93b115" x="2246.269531"/>
<use xlink:href="#c_7a2040fe3b94fcd41d0a72c84e93b115" x="2309.892578"/>
<use xlink:href="#c_956f18cfdaf972f35a6c2b4aaac2532b" x="2373.515625"/>
</g>
</g>
</g>
</svg>